<?xml version="1.0" encoding="utf-8"?>
<!-- Generator: Adobe Illustrator 16.0.0, SVG Export Plug-In . SVG Version: 6.00 Build 0)  -->
<!DOCTYPE svg PUBLIC "-//W3C//DTD SVG 1.1//EN" "http://www.w3.org/Graphics/SVG/1.1/DTD/svg11.dtd">
<svg version="1.1" id="Layer_1" xmlns="http://www.w3.org/2000/svg" xmlns:xlink="http://www.w3.org/1999/xlink" x="0px" y="0px"
	 width="28.658px" height="15.197px" viewBox="0 0 28.658 15.197" enable-background="new 0 0 28.658 15.197" xml:space="preserve">
<g>
	<path d="M1.4,1.562c0.887-0.336,1.685-0.457,2.394-0.364c0.579,0.084,1.099,0.306,1.561,0.665c0.462,0.359,0.803,0.78,1.022,1.26
		c0.219,0.481,0.301,1.006,0.245,1.575c-0.056,0.57-0.28,1.087-0.672,1.554c0.569,0.233,1.029,0.572,1.379,1.015
		s0.56,0.915,0.63,1.414c0.07,0.499,0,1.01-0.21,1.533c-0.21,0.523-0.558,0.98-1.043,1.372c-0.327,0.261-0.726,0.474-1.197,0.637
		c-0.471,0.163-0.954,0.271-1.449,0.322s-0.976,0.065-1.442,0.042c-0.467-0.023-0.882-0.077-1.246-0.161
		c-0.009,0-0.019-0.004-0.028-0.014c-0.047,0.009-0.094,0.014-0.14,0.014c-0.168-0.009-0.308-0.079-0.42-0.21
		c-0.112-0.13-0.164-0.28-0.154-0.448c0.065-1.223,0.112-2.809,0.14-4.76c-0.009-0.065-0.014-0.135-0.014-0.21l0.028-0.112
		c0-0.42,0.004-0.774,0.014-1.064c0-0.149,0.002-0.425,0.007-0.826C0.81,4.395,0.814,4.079,0.819,3.851S0.84,3.337,0.868,2.997
		C0.896,2.656,0.933,2.346,0.98,2.065c0.019-0.14,0.079-0.256,0.182-0.35C1.227,1.641,1.307,1.589,1.4,1.562z M6.692,8.688
		C6.626,8.398,6.479,8.134,6.251,7.896C6.022,7.659,5.73,7.474,5.376,7.343C5.143,7.259,4.807,7.231,4.368,7.259
		C3.724,7.456,2.935,7.54,2.002,7.512c-0.028,1.615-0.065,2.87-0.112,3.766c0.569,0.103,1.185,0.122,1.848,0.056
		c-0.009-0.037-0.014-0.079-0.014-0.126c0.046-1.12,0.345-1.885,0.896-2.296C5.133,8.529,5.824,8.454,6.692,8.688z M3.136,6.251
		c0.093-0.075,0.2-0.121,0.322-0.14c0.429-0.046,0.658-0.07,0.686-0.07c0.289-0.103,0.522-0.238,0.7-0.406
		c0.364-0.345,0.55-0.761,0.56-1.246S5.254,3.473,4.928,3.095c-0.327-0.378-0.761-0.6-1.302-0.665
		c-0.42-0.056-0.915,0.004-1.484,0.182C2.114,2.835,2.091,3.085,2.072,3.36C2.053,3.636,2.044,3.874,2.044,4.075
		S2.042,4.542,2.037,4.873C2.032,5.204,2.03,5.463,2.03,5.649c0,0.187-0.004,0.397-0.014,0.63C2.427,6.289,2.8,6.279,3.136,6.251z"
		/>
	<path d="M12.656,1.324c0.905,1.54,1.649,3.229,2.233,5.068s0.959,3.663,1.127,5.474c0.009,0.168-0.04,0.317-0.147,0.448
		c-0.107,0.131-0.245,0.203-0.413,0.217c-0.168,0.014-0.317-0.033-0.448-0.14c-0.131-0.107-0.206-0.245-0.224-0.413
		c-0.047-0.551-0.117-1.106-0.21-1.666c-0.345-0.009-1.027-0.004-2.044,0.014c-1.157,0.019-2.011,0.019-2.562,0l-0.35,1.652
		c-0.037,0.168-0.128,0.298-0.273,0.392c-0.145,0.093-0.299,0.121-0.462,0.084c-0.164-0.038-0.292-0.128-0.385-0.273
		s-0.121-0.296-0.084-0.455c0.093-0.429,0.229-1.087,0.406-1.974s0.329-1.607,0.455-2.163c0.126-0.555,0.289-1.208,0.49-1.96
		c0.201-0.751,0.429-1.463,0.686-2.135c0.257-0.672,0.543-1.312,0.861-1.918c0.065-0.131,0.164-0.224,0.294-0.28
		c0.056-0.084,0.126-0.149,0.21-0.196c0.14-0.084,0.294-0.105,0.462-0.063S12.572,1.174,12.656,1.324z M12.74,4.18
		c-0.206-0.467-0.425-0.924-0.658-1.372c-0.42,0.905-0.768,1.848-1.043,2.828c-0.275,0.98-0.548,2.137-0.819,3.472
		c0.476,0.009,1.237,0.005,2.282-0.014c0.905-0.019,1.517-0.023,1.834-0.014c-0.122-0.579-0.266-1.148-0.434-1.708
		c-0.43-0.047-0.821-0.161-1.176-0.343c-0.354-0.182-0.611-0.427-0.77-0.735c-0.149-0.261-0.201-0.52-0.154-0.777
		c0.046-0.257,0.149-0.495,0.308-0.714S12.479,4.375,12.74,4.18z"/>
	<path d="M17.724,1.085c1.157-0.233,2.216-0.107,3.178,0.378c0.952,0.485,1.717,1.204,2.296,2.156
		c0.364,0.606,0.616,1.25,0.756,1.932c0.149,0.682,0.172,1.391,0.07,2.128s-0.341,1.423-0.714,2.058
		c-0.84,1.428-2.543,2.222-5.11,2.38c-0.122,0.009-0.233-0.014-0.336-0.07c-0.103,0.065-0.215,0.098-0.336,0.098
		c-0.168,0-0.313-0.061-0.434-0.182c-0.122-0.121-0.182-0.266-0.182-0.434c0-0.784,0.016-1.869,0.049-3.255
		c0.033-1.386,0.054-2.471,0.063-3.255s-0.009-1.867-0.056-3.248c-0.01-0.168,0.044-0.315,0.161-0.441s0.259-0.194,0.427-0.203
		h0.042C17.635,1.109,17.677,1.095,17.724,1.085z M22.848,6.447c-0.065-0.784-0.299-1.517-0.7-2.198
		c-0.429-0.709-0.987-1.248-1.673-1.617c-0.686-0.369-1.44-0.497-2.261-0.385c0.028,1.26,0.04,2.219,0.035,2.877
		c-0.005,0.658-0.021,1.62-0.049,2.884c-0.028,1.265-0.047,2.224-0.056,2.877c0.933-0.056,1.712-0.201,2.338-0.434
		c-0.364-1.083-0.299-2.016,0.196-2.8C21.145,6.915,21.868,6.513,22.848,6.447z"/>
</g>
</svg>
