<?xml version="1.0" encoding="utf-8"?>
<!-- Generator: Adobe Illustrator 16.0.2, SVG Export Plug-In . SVG Version: 6.00 Build 0)  -->
<!DOCTYPE svg PUBLIC "-//W3C//DTD SVG 1.1//EN" "http://www.w3.org/Graphics/SVG/1.1/DTD/svg11.dtd">
<svg version="1.1" id="Layer_1" xmlns="http://www.w3.org/2000/svg" xmlns:xlink="http://www.w3.org/1999/xlink" x="0px" y="0px"
	 width="601.311px" height="65.25px" viewBox="4.678 -0.595 601.311 65.25" enable-background="new 4.678 -0.595 601.311 65.25"
	 xml:space="preserve">
<g>
	<path fill="#F2C617" stroke="#080607" stroke-miterlimit="10" d="M14.634,2.883c-5.206,0-9.456,4.25-9.456,9.457
		c0,5.205,4.25,9.455,9.456,9.455h30.6V2.774h-30.6V2.883z"/>
	<rect x="49.484" y="2.883" fill="#20B681" stroke="#0B090A" stroke-miterlimit="10" width="431.802" height="19.021"/>
	<path fill="#DF1F26" stroke="#0E0609" stroke-miterlimit="10" d="M596.036,2.883h-43.885v18.912h43.885
		c5.203,0,9.453-4.25,9.453-9.455C605.489,7.133,601.241,2.883,596.036,2.883z"/>
	<rect x="485.536" y="2.883" fill="#FF5824" stroke="#060304" stroke-miterlimit="10" width="62.365" height="19.021"/>
	<text transform="matrix(1 0 0 1 13.0371 48.707)" fill="#F1C519" font-family="'Montserrat-Bold'" font-size="5.7">UNDER</text>
	<text transform="matrix(1 0 0 1 11.5239 56.3105)" fill="#F1C519" font-family="'Montserrat-Bold'" font-size="5.7">WEIGHT</text>
	<line fill="none" stroke="#080607" stroke-width="0.5" stroke-miterlimit="10" x1="5.178" y1="27.744" x2="5.178" y2="58.584"/>
	<line fill="none" stroke="#080607" stroke-width="0.5" stroke-miterlimit="10" x1="45.234" y1="27.744" x2="45.234" y2="58.584"/>
	
		<line fill="none" stroke="#080607" stroke-width="0.5" stroke-miterlimit="10" x1="484.153" y1="27.744" x2="484.153" y2="58.584"/>
	<line fill="none" stroke="#080607" stroke-width="0.5" stroke-miterlimit="10" x1="550.77" y1="27.744" x2="550.77" y2="58.559"/>
	
		<line fill="none" stroke="#080607" stroke-width="0.5" stroke-miterlimit="10" x1="605.491" y1="27.744" x2="605.491" y2="58.559"/>
	<g>
		<text transform="matrix(1 0 0 1 250.7544 48.4893)" fill="#74c68e" font-family="'Montserrat-Bold'" font-size="5.7">NORMAL</text>
		<text transform="matrix(1 0 0 1 252.4814 56.3105)" fill="#74c68e" font-family="'Montserrat-Bold'" font-size="5.7"></text>
	</g>
	<text transform="matrix(1 0 0 1 507.5649 48.707)" fill="#FF5824" font-family="'Montserrat-Bold'" font-size="5.7">OVER</text>
	<text transform="matrix(1 0 0 1 503.6812 56.1445)" fill="#FF5824" font-family="'Montserrat-Bold'" font-size="5.7">WEIGHT</text>
	<text transform="matrix(1 0 0 1 566.1685 48.4893)" fill="#DD2027" font-family="'Montserrat-Bold'" font-size="5.7">OBESE</text>
	<text transform="matrix(1 0 0 1 13.3164 32.8857)" fill="#162148" font-family="'Montserrat-Bold'" font-size="5.7">0 - 5 TH</text>
	<text transform="matrix(1 0 0 1 5.8032 39.6865)" fill="#162148" font-family="'Montserrat-Bold'" font-size="5.7">PERCENTILE</text>
	<text transform="matrix(1 0 0 1 247.1782 31.668)" fill="#162148" font-family="'Montserrat-Bold'" font-size="5.7">5 TH - 85 TH</text>
	<text transform="matrix(1 0 0 1 245.3706 38.4678)" fill="#162148" font-family="'Montserrat-Bold'" font-size="5.7">PERCENTILE </text>
	<text transform="matrix(1 0 0 1 497.1577 31.668)" fill="#162148" font-family="'Montserrat-Bold'" font-size="5.7">85 TH - 95 TH</text>
	<text transform="matrix(1 0 0 1 498.5444 38.4678)" fill="#162148" font-family="'Montserrat-Bold'" font-size="5.7">PERCENTILE</text>
	<text transform="matrix(1 0 0 1 560.5229 31.668)" fill="#162148" font-family="'Montserrat-Bold'" font-size="5.7">95 TH - 100</text>
	<text transform="matrix(1 0 0 1 557.8784 38.4678)" fill="#162148" font-family="'Montserrat-Bold'" font-size="5.7">PERCENTILE</text>
</g>
</svg>
