<?xml version="1.0" encoding="utf-8"?>
<!-- Generator: Adobe Illustrator 16.0.0, SVG Export Plug-In . SVG Version: 6.00 Build 0)  -->
<!DOCTYPE svg PUBLIC "-//W3C//DTD SVG 1.1//EN" "http://www.w3.org/Graphics/SVG/1.1/DTD/svg11.dtd">
<svg version="1.1" id="Layer_1" xmlns="http://www.w3.org/2000/svg" xmlns:xlink="http://www.w3.org/1999/xlink" x="0px" y="0px"
	 width="63.654px" height="60.657px" viewBox="0 0 63.654 60.657" enable-background="new 0 0 63.654 60.657" xml:space="preserve">
<rect x="-259.036" y="-560.191" fill="#FFFFFF" width="659.966" height="377.981"/>
<rect x="-26.48" y="-12.294" fill="#FFFFFF" width="100.667" height="100.667"/>
<rect x="179.353" y="11.455" fill="#FFFFFF" width="80" height="83.25"/>
<g>
	<g>
		<circle fill="#050707" cx="-195.126" cy="-686.34" r="1.941"/>
	</g>
	<g>
		<circle fill="#050707" cx="-185.144" cy="-696.322" r="1.941"/>
		<circle fill="#050707" cx="-195.126" cy="-696.322" r="1.941"/>
	</g>
	<g>
		<circle fill="#050707" cx="-175.163" cy="-706.302" r="1.941"/>
		<circle fill="#050707" cx="-185.144" cy="-706.302" r="1.941"/>
		<circle fill="#050707" cx="-195.126" cy="-706.302" r="1.941"/>
	</g>
	<g>
		<circle fill="#050707" cx="-165.183" cy="-716.283" r="1.941"/>
		<circle fill="#050707" cx="-175.163" cy="-716.283" r="1.941"/>
		<circle fill="#050707" cx="-185.144" cy="-716.283" r="1.941"/>
		<circle fill="#050707" cx="-195.126" cy="-716.283" r="1.941"/>
	</g>
	<g>
		<circle fill="#050707" cx="-155.2" cy="-726.264" r="1.941"/>
		<circle fill="#050707" cx="-165.183" cy="-726.264" r="1.941"/>
		<circle fill="#050707" cx="-175.163" cy="-726.264" r="1.941"/>
		<circle fill="#050707" cx="-185.144" cy="-726.264" r="1.941"/>
		<circle fill="#050707" cx="-195.126" cy="-726.264" r="1.941"/>
	</g>
	<g>
		<circle fill="#050707" cx="-145.22" cy="-736.246" r="1.941"/>
		<circle fill="#050707" cx="-155.2" cy="-736.246" r="1.941"/>
		<circle fill="#050707" cx="-165.183" cy="-736.246" r="1.941"/>
		<circle fill="#050707" cx="-175.163" cy="-736.246" r="1.941"/>
		<circle fill="#050707" cx="-185.144" cy="-736.246" r="1.941"/>
		<circle fill="#050707" cx="-195.126" cy="-736.246" r="1.941"/>
	</g>
</g>
<path fill="#FFFFFF" d="M-65.564-330.017c-0.103,1.399-0.271,2.732-0.271,4.065c0,1.336,0.169,2.671,0.269,4.049
	c-0.494,0-1.037,0-1.627,0c0-2.684,0-5.377,0-8.114C-66.652-330.017-66.111-330.017-65.564-330.017z"/>
<g>
	<g>
		<circle fill="#050707" cx="245.608" cy="27.799" r="1.941"/>
	</g>
	<g>
		<circle fill="#050707" cx="235.627" cy="37.781" r="1.94"/>
		<circle fill="#050707" cx="245.608" cy="37.781" r="1.941"/>
	</g>
	<g>
		<circle fill="#050707" cx="225.646" cy="47.761" r="1.941"/>
		<circle fill="#050707" cx="235.627" cy="47.761" r="1.94"/>
		<circle fill="#050707" cx="245.608" cy="47.761" r="1.941"/>
	</g>
	<g>
		<circle fill="#050707" cx="215.665" cy="57.742" r="1.941"/>
		<circle fill="#050707" cx="225.646" cy="57.742" r="1.941"/>
		<circle fill="#050707" cx="235.627" cy="57.742" r="1.94"/>
		<circle fill="#050707" cx="245.608" cy="57.742" r="1.941"/>
	</g>
	<g>
		<circle fill="#050707" cx="205.683" cy="67.723" r="1.941"/>
		<circle fill="#050707" cx="215.665" cy="67.723" r="1.941"/>
		<circle fill="#050707" cx="225.646" cy="67.723" r="1.941"/>
		<circle fill="#050707" cx="235.627" cy="67.723" r="1.939"/>
		<circle fill="#050707" cx="245.608" cy="67.723" r="1.941"/>
	</g>
	<g>
		<circle fill="#050707" cx="195.702" cy="77.705" r="1.941"/>
		<circle fill="#050707" cx="205.683" cy="77.705" r="1.941"/>
		<circle fill="#050707" cx="215.665" cy="77.705" r="1.941"/>
		<circle fill="#050707" cx="225.646" cy="77.705" r="1.941"/>
		<circle fill="#050707" cx="235.627" cy="77.705" r="1.94"/>
		<circle fill="#050707" cx="245.608" cy="77.705" r="1.941"/>
	</g>
</g>
<g>
	<path d="M0,7.209c0.232-0.788,0.371-1.621,0.716-2.358C2.155,1.77,4.63,0.053,8.014,0.042c15.87-0.055,31.741-0.056,47.613-0.005
		c4.57,0.014,7.993,3.604,8.021,8.172c0.019,2.963,0.004,5.926,0.003,8.889c0,0.165,0.006,0.336-0.029,0.495
		c-0.107,0.487-0.438,0.769-0.924,0.76c-0.458-0.009-0.775-0.283-0.876-0.743c-0.043-0.2-0.032-0.412-0.032-0.619
		c-0.002-2.88,0.003-5.76-0.003-8.641c-0.008-3.743-2.719-6.468-6.472-6.469c-15.664-0.008-31.328-0.008-46.992,0
		C4.577,1.883,1.868,4.613,1.866,8.363C1.861,16.382,1.864,24.4,1.864,32.418c0,0.187,0,0.371,0,0.606c2.247,0,4.47,0,6.725,0
		c0.081-0.989,0.144-1.979,0.248-2.965c0.319-2.981,1.408-5.59,3.896-7.408c4.101-2.998,9.876-1.243,11.877,3.562
		c0.729,1.752,0.989,3.581,0.904,5.468c-0.021,0.434-0.038,0.867-0.061,1.348c4.243,0,8.456,0,12.746,0
		c-0.023-0.498-0.057-0.986-0.067-1.476c-0.063-2.811,0.47-5.452,2.35-7.654c3.5-4.099,10.063-3.398,12.782,1.299
		c1.137,1.962,1.553,4.077,1.688,6.287c0.032,0.513,0.063,1.026,0.096,1.562c2.26,0,4.468,0,6.74,0c0-0.248,0-0.471,0-0.692
		c0-3.336,0-6.672,0.001-10.008c0-0.186-0.012-0.374,0.009-0.559c0.061-0.538,0.449-0.904,0.937-0.897
		c0.487,0.008,0.855,0.378,0.911,0.925c0.015,0.144,0.008,0.289,0.008,0.435c0,10.007,0.004,20.016-0.002,30.022
		c-0.003,4.843-3.502,8.375-8.334,8.378c-15.665,0.012-31.329,0.012-46.993,0c-4.237-0.002-7.478-2.727-8.213-6.843
		C0.09,53.688,0.037,53.575,0,53.458C0,38.042,0,22.625,0,7.209z M1.913,50.504c-0.74,6.461,3.807,8.933,8.228,8.168
		c-0.115-0.605-0.3-1.211-0.315-1.818c-0.009-0.307,0.213-0.738,0.466-0.893c0.227-0.139,0.684-0.062,0.952,0.084
		c0.209,0.111,0.341,0.457,0.409,0.724c0.169,0.655,0.28,1.325,0.417,2c13.186,0,26.338,0,39.499,0
		c0.961-5.845,4.356-9.24,10.18-10.206c0-4.529,0-9.057,0-13.588c-2.25,0-4.457,0-6.691,0c-0.033,0.318-0.072,0.605-0.092,0.893
		c-0.405,6.361-2.664,11.943-7.007,16.649c-1.066,1.155-2.352,1.849-3.932,2.026c-2.916,0.33-5.868-2.094-6.118-5.021
		c-0.138-1.628,0.239-3.16,0.68-4.696c0.347-1.211,0.717-2.425,0.937-3.66c0.387-2.166-0.58-4.141-0.962-6.205
		c-4.512,0-8.962,0-13.46,0c-0.294,1.213-0.591,2.416-0.876,3.621c-0.264,1.107-0.255,2.223,0.024,3.321
		c0.28,1.103,0.598,2.194,0.919,3.285c0.469,1.58,0.859,3.188,0.497,4.826c-0.504,2.271-1.928,3.782-4.197,4.36
		c-2.146,0.545-4.044-0.058-5.555-1.644c-4.463-4.687-6.778-10.315-7.219-16.747c-0.022-0.342-0.066-0.682-0.099-1.002
		c-2.284,0-4.489,0-6.71,0c0,4.557,0,9.066,0,13.594c0.092,0.025,0.167,0.051,0.244,0.068c0.122,0.025,0.244,0.049,0.367,0.064
		c2.461,0.352,4.564,1.416,6.322,3.168c0.695,0.693,0.798,1.188,0.357,1.647c-0.463,0.479-0.959,0.375-1.69-0.353
		C5.95,51.646,4.097,50.774,1.913,50.504z M53.19,33.301c-0.04-0.73-0.066-1.352-0.108-1.971c-0.147-2.181-0.607-4.24-2.019-6.014
		c-2.045-2.571-5.895-3.011-8.425-0.908c-1.745,1.45-2.38,3.426-2.601,5.579c-0.212,2.05,0.077,4.066,0.701,6.005
		c0.961,2.979,0.863,5.877-0.164,8.817c-0.418,1.196-0.675,2.478-0.813,3.739c-0.181,1.656,0.577,2.924,2.053,3.721
		c1.341,0.727,3.005,0.577,4.17-0.477c0.763-0.688,1.452-1.478,2.08-2.293C51.764,44.695,53.272,39.189,53.19,33.301z
		 M10.428,33.639c0.063,0.904,0.104,2.293,0.265,3.667c0.629,5.435,2.793,10.171,6.568,14.149c1.177,1.237,2.902,1.586,4.383,0.92
		c1.535-0.69,2.503-2.205,2.235-3.914c-0.257-1.644-0.729-3.256-1.148-4.871c-0.395-1.512-0.739-3.031-0.465-4.594
		c0.21-1.199,0.525-2.379,0.815-3.563c0.674-2.759,0.908-5.502-0.095-8.245c-1.111-3.039-4.271-4.768-7.316-3.918
		c-2.188,0.611-3.495,2.195-4.337,4.21C10.576,29.295,10.606,31.241,10.428,33.639z M61.739,50.521
		c-5.224,0.534-8.124,5.114-8.154,8.192C58.516,59.413,62.451,56.502,61.739,50.521z"/>
	<path d="M31.866,5.207c2.775,0,5.551-0.004,8.326,0.001c1.982,0.003,3.065,1.091,3.069,3.077c0.003,2.071,0.006,4.142,0,6.213
		c-0.008,1.886-1.129,3.012-3.024,3.014c-5.612,0.006-11.226,0.007-16.838,0c-1.891-0.004-3.002-1.135-3.007-3.031
		c-0.005-2.092-0.006-4.184,0-6.275c0.006-1.895,1.112-2.992,3.023-2.997C26.233,5.202,29.05,5.207,31.866,5.207z M24.211,15.627
		c0.049-0.202,0.095-0.361,0.127-0.523c0.956-4.652,5.661-7.286,10.146-5.697c0.205,0.072,0.503,0.017,0.712-0.079
		c0.673-0.308,1.307,0.07,1.387,0.808c0.029,0.267,0.173,0.577,0.366,0.76c1.132,1.066,1.902,2.336,2.293,3.838
		c0.076,0.295,0.132,0.594,0.203,0.917c0.185,0,0.328-0.001,0.471,0c1.266,0.011,1.481-0.205,1.482-1.471
		c0-1.968,0.002-3.937-0.002-5.905c-0.001-0.911-0.281-1.201-1.175-1.201c-5.596-0.003-11.188-0.003-16.783,0
		c-0.898,0-1.181,0.287-1.183,1.195c-0.004,1.926-0.002,3.854-0.002,5.781c0.001,1.451,0.188,1.632,1.663,1.6
		C23.999,15.646,24.08,15.637,24.211,15.627z M26.18,15.649c1.644,0,3.233,0.005,4.824-0.009c0.139-0.002,0.334-0.09,0.401-0.201
		c0.845-1.389,1.672-2.79,2.505-4.192C30.684,9.796,26.626,12.096,26.18,15.649z M37.506,15.632
		c-0.244-1.407-0.876-2.532-1.977-3.46c-0.695,1.174-1.353,2.279-2.051,3.46C34.882,15.632,36.142,15.632,37.506,15.632z"/>
	<path d="M14.745,10.986c-1.519,0.01-2.775-1.214-2.805-2.728c-0.028-1.536,1.224-2.812,2.769-2.821
		c1.544-0.009,2.816,1.254,2.81,2.785C17.509,9.73,16.261,10.975,14.745,10.986z M14.698,9.111c0.496,0.014,0.931-0.387,0.947-0.873
		c0.018-0.484-0.396-0.916-0.892-0.93c-0.498-0.014-0.928,0.383-0.944,0.873C13.793,8.669,14.202,9.097,14.698,9.111z"/>
	<path d="M48.941,10.985c-1.515,0.01-2.775-1.218-2.805-2.729c-0.029-1.527,1.233-2.812,2.773-2.818
		c1.547-0.008,2.813,1.25,2.803,2.788C51.704,9.74,50.463,10.976,48.941,10.985z M48.938,9.113c0.496-0.006,0.913-0.427,0.906-0.914
		c-0.008-0.489-0.433-0.897-0.929-0.892c-0.494,0.005-0.914,0.428-0.908,0.913C48.015,8.705,48.445,9.119,48.938,9.113z"/>
	<path d="M14.711,11.793c1.547-0.007,2.817,1.254,2.808,2.786c-0.011,1.506-1.264,2.756-2.774,2.769
		c-1.531,0.012-2.812-1.267-2.803-2.799C11.949,13.033,13.19,11.799,14.711,11.793z M14.641,15.463c0.496,0.047,0.944-0.319,1-0.813
		c0.052-0.479-0.337-0.942-0.828-0.983c-0.506-0.043-0.945,0.315-0.998,0.812C13.764,14.961,14.146,15.416,14.641,15.463z"/>
	<path d="M48.903,11.793c1.552-0.01,2.814,1.24,2.811,2.779c-0.005,1.509-1.248,2.757-2.765,2.775
		c-1.526,0.018-2.817-1.264-2.813-2.792C46.142,13.045,47.387,11.801,48.903,11.793z M49.844,14.546
		c-0.012-0.49-0.437-0.894-0.936-0.886c-0.495,0.009-0.913,0.436-0.902,0.921c0.012,0.483,0.45,0.901,0.938,0.892
		C49.436,15.463,49.854,15.031,49.844,14.546z"/>
	<path d="M7.878,5.441c1.555,0.042,2.739,1.313,2.691,2.883c-0.047,1.51-1.334,2.707-2.858,2.657
		C6.19,10.931,4.96,9.648,5.003,8.157C5.049,6.605,6.326,5.399,7.878,5.441z M7.787,9.113c0.507,0.002,0.912-0.395,0.916-0.896
		c0.004-0.505-0.391-0.903-0.899-0.908c-0.503-0.004-0.92,0.399-0.925,0.893C6.874,8.692,7.291,9.111,7.787,9.113z"/>
	<path d="M55.876,10.986c-1.525,0.008-2.774-1.212-2.793-2.729c-0.019-1.561,1.204-2.81,2.76-2.818
		c1.546-0.009,2.819,1.257,2.809,2.786C58.639,9.735,57.391,10.978,55.876,10.986z M56.775,8.188
		c-0.016-0.496-0.435-0.889-0.938-0.878c-0.508,0.013-0.897,0.418-0.887,0.923c0.013,0.499,0.427,0.891,0.931,0.882
		C56.375,9.104,56.789,8.675,56.775,8.188z"/>
	<path d="M10.571,14.586c-0.009,1.52-1.247,2.754-2.77,2.761c-1.527,0.008-2.817-1.285-2.799-2.806
		c0.02-1.544,1.288-2.77,2.846-2.746C9.374,11.816,10.58,13.053,10.571,14.586z M8.703,14.566c0.001-0.503-0.399-0.903-0.906-0.904
		c-0.503-0.002-0.917,0.404-0.919,0.899c-0.002,0.487,0.426,0.911,0.915,0.911C8.296,15.473,8.702,15.067,8.703,14.566z"/>
	<path d="M55.882,11.792c1.518,0.008,2.763,1.25,2.77,2.763c0.007,1.525-1.288,2.809-2.813,2.791
		c-1.524-0.018-2.751-1.252-2.754-2.773C53.079,13.018,54.321,11.784,55.882,11.792z M54.95,14.584
		c0.011,0.501,0.429,0.9,0.93,0.891c0.49-0.01,0.908-0.445,0.896-0.932c-0.014-0.499-0.431-0.891-0.938-0.881
		C55.334,13.673,54.939,14.083,54.95,14.584z"/>
	<path fill="#FFFFFF" d="M1.913,50.504c2.185,0.271,4.037,1.142,5.575,2.67c0.731,0.729,1.229,0.834,1.69,0.354
		c0.439-0.46,0.338-0.953-0.357-1.646c-1.758-1.754-3.861-2.817-6.322-3.168c-0.123-0.018-0.245-0.041-0.367-0.065
		c-0.077-0.019-0.152-0.043-0.244-0.069c0-4.525,0-9.037,0-13.593c2.221,0,4.426,0,6.71,0c0.031,0.32,0.075,0.66,0.099,1.003
		c0.438,6.43,2.756,12.061,7.219,16.746c1.511,1.586,3.408,2.188,5.555,1.643c2.271-0.576,3.693-2.088,4.197-4.359
		c0.362-1.637-0.028-3.246-0.497-4.826c-0.321-1.091-0.639-2.184-0.919-3.285c-0.279-1.1-0.288-2.214-0.024-3.322
		c0.285-1.205,0.582-2.408,0.876-3.621c4.498,0,8.948,0,13.46,0c0.382,2.065,1.349,4.041,0.962,6.205
		c-0.22,1.236-0.59,2.449-0.937,3.66c-0.439,1.537-0.816,3.069-0.68,4.697c0.25,2.928,3.202,5.352,6.118,5.021
		c1.58-0.18,2.864-0.871,3.932-2.027c4.343-4.706,6.602-10.288,7.007-16.648c0.02-0.287,0.059-0.574,0.092-0.894
		c2.234,0,4.441,0,6.691,0c0,4.532,0,9.06,0,13.588c-5.822,0.966-9.219,4.362-10.18,10.206c-13.161,0-26.313,0-39.499,0
		c-0.137-0.675-0.248-1.346-0.417-2c-0.068-0.268-0.2-0.611-0.409-0.725c-0.27-0.145-0.727-0.223-0.952-0.084
		c-0.253,0.154-0.475,0.588-0.466,0.894c0.017,0.606,0.2,1.213,0.315,1.817C5.719,59.437,1.173,56.965,1.913,50.504z"/>
	<path fill="#F2C617" d="M53.19,33.301c0.082,5.889-1.427,11.395-5.124,16.199c-0.628,0.816-1.317,1.605-2.08,2.295
		c-1.165,1.053-2.829,1.201-4.17,0.476c-1.476-0.797-2.232-2.063-2.053-3.722c0.138-1.262,0.395-2.541,0.813-3.738
		c1.027-2.939,1.125-5.839,0.164-8.818c-0.624-1.938-0.913-3.955-0.701-6.003c0.221-2.153,0.854-4.129,2.601-5.579
		c2.53-2.103,6.38-1.663,8.425,0.908c1.41,1.773,1.87,3.833,2.019,6.013C53.124,31.95,53.15,32.57,53.19,33.301z"/>
	<path fill="#F2C617" d="M10.428,33.639c0.179-2.396,0.147-4.344,0.905-6.159c0.842-2.015,2.147-3.599,4.337-4.21
		c3.047-0.85,6.205,0.879,7.316,3.918c1.003,2.743,0.769,5.486,0.095,8.245c-0.29,1.185-0.605,2.364-0.815,3.563
		c-0.274,1.563,0.07,3.082,0.465,4.594c0.421,1.615,0.893,3.229,1.148,4.871c0.268,1.709-0.7,3.224-2.235,3.914
		c-1.479,0.666-3.206,0.317-4.383-0.92c-3.775-3.979-5.939-8.715-6.568-14.149C10.533,35.932,10.49,34.543,10.428,33.639z"/>
	<path fill="#FFFFFF" d="M61.739,50.521c0.712,5.981-3.224,8.892-8.154,8.192C53.615,55.635,56.516,51.056,61.739,50.521z"/>
	<path fill="#FFFFFF" d="M24.211,15.627c-0.131,0.01-0.212,0.02-0.293,0.021c-1.475,0.032-1.662-0.148-1.663-1.6
		c0-1.928-0.002-3.855,0.002-5.781c0.002-0.908,0.283-1.195,1.183-1.195c5.595-0.003,11.188-0.003,16.783,0
		c0.894,0,1.174,0.29,1.175,1.201c0.004,1.969,0.002,3.938,0.002,5.905c-0.001,1.266-0.218,1.481-1.482,1.471
		c-0.143-0.001-0.286,0-0.471,0c-0.071-0.323-0.127-0.622-0.203-0.917c-0.391-1.502-1.161-2.771-2.293-3.838
		c-0.193-0.183-0.337-0.493-0.366-0.76c-0.08-0.737-0.714-1.115-1.387-0.808c-0.209,0.096-0.507,0.151-0.712,0.079
		C30,7.816,25.295,10.45,24.339,15.102C24.305,15.266,24.26,15.425,24.211,15.627z"/>
	<path fill="#FFFFFF" d="M26.18,15.649c0.445-3.554,4.504-5.854,7.73-4.402c-0.833,1.402-1.66,2.804-2.505,4.192
		c-0.067,0.111-0.264,0.199-0.401,0.201C29.414,15.654,27.823,15.649,26.18,15.649z"/>
	<path fill="#FFFFFF" d="M37.506,15.632c-1.363,0-2.624,0-4.026,0c0.699-1.181,1.354-2.286,2.051-3.46
		C36.63,13.1,37.261,14.225,37.506,15.632z"/>
	<path fill="#FFFFFF" d="M14.698,9.111c-0.496-0.015-0.905-0.442-0.889-0.93c0.018-0.49,0.446-0.887,0.944-0.873
		c0.494,0.014,0.908,0.445,0.892,0.93C15.629,8.725,15.194,9.125,14.698,9.111z"/>
	<path fill="#FFFFFF" d="M48.938,9.113c-0.492,0.006-0.923-0.408-0.931-0.893c-0.006-0.485,0.414-0.908,0.908-0.913
		c0.496-0.006,0.921,0.402,0.929,0.892C49.851,8.687,49.434,9.107,48.938,9.113z"/>
	<path fill="#FFFFFF" d="M14.641,15.463c-0.495-0.047-0.877-0.502-0.826-0.985c0.053-0.496,0.492-0.854,0.998-0.812
		c0.491,0.041,0.88,0.504,0.828,0.983C15.586,15.144,15.137,15.51,14.641,15.463z"/>
	<path fill="#FFFFFF" d="M49.844,14.546c0.011,0.485-0.408,0.917-0.898,0.927c-0.488,0.01-0.928-0.408-0.938-0.892
		c-0.011-0.485,0.407-0.912,0.902-0.921C49.408,13.652,49.833,14.056,49.844,14.546z"/>
	<path fill="#FFFFFF" d="M7.787,9.113C7.291,9.111,6.874,8.692,6.879,8.202c0.005-0.494,0.422-0.897,0.925-0.894
		c0.51,0.005,0.903,0.403,0.899,0.908C8.699,8.719,8.294,9.115,7.787,9.113z"/>
	<path fill="#FFFFFF" d="M56.775,8.188c0.014,0.487-0.4,0.917-0.896,0.927c-0.504,0.009-0.918-0.383-0.931-0.882
		c-0.012-0.505,0.379-0.91,0.887-0.923C56.342,7.299,56.761,7.691,56.775,8.188z"/>
	<path fill="#FFFFFF" d="M8.703,14.566c-0.001,0.501-0.407,0.906-0.91,0.906c-0.489,0-0.917-0.424-0.915-0.911
		c0.002-0.495,0.416-0.901,0.919-0.899C8.303,13.663,8.704,14.063,8.703,14.566z"/>
	<path fill="#FFFFFF" d="M54.95,14.584c-0.011-0.501,0.384-0.911,0.889-0.922c0.507-0.01,0.924,0.382,0.938,0.881
		c0.013,0.486-0.405,0.922-0.896,0.932C55.379,15.484,54.961,15.085,54.95,14.584z"/>
</g>
</svg>
