<?xml version="1.0" encoding="utf-8"?>
<!-- Generator: Adobe Illustrator 16.0.0, SVG Export Plug-In . SVG Version: 6.00 Build 0)  -->
<!DOCTYPE svg PUBLIC "-//W3C//DTD SVG 1.1//EN" "http://www.w3.org/Graphics/SVG/1.1/DTD/svg11.dtd">
<svg version="1.1" id="Layer_1" xmlns="http://www.w3.org/2000/svg" xmlns:xlink="http://www.w3.org/1999/xlink" x="0px" y="0px"
	 width="51.102px" height="65.631px" viewBox="0 0 51.102 65.631" enable-background="new 0 0 51.102 65.631" xml:space="preserve">
<rect x="-21.06" y="0.077" fill="#FFFFFF" width="100.667" height="90.667"/>
<g>
	<g>
		<path d="M22.348,65.631c0.012-0.789,0.032-1.578,0.032-2.366c0.004-4.166,0.002-8.33,0.002-12.496c0-0.254,0-0.509,0-0.783
			c-0.137-0.035-0.231-0.076-0.332-0.082c-1.309-0.082-1.717-0.514-1.719-1.848c-0.004-1.943-0.01-3.888,0.008-5.83
			c0.002-0.398-0.098-0.588-0.514-0.72c-6.699-2.104-11.332-6.434-13.871-12.984c-0.154-0.395-0.354-0.498-0.748-0.492
			c-0.768,0.014-1.541,0.029-2.303-0.057c-1.379-0.158-2.342-1.191-2.359-2.588c-0.035-2.799-0.037-5.598,0.002-8.395
			c0.021-1.469,1.152-2.555,2.623-2.621c0.66-0.031,1.326-0.041,1.986,0c0.461,0.029,0.66-0.139,0.818-0.566
			c1.162-3.135,2.969-5.852,5.424-8.123c3.444-3.189,7.512-5.045,12.186-5.553c0.23-0.023,0.459-0.084,0.688-0.127
			c1.024,0,2.051,0,3.076,0c0.965,0.164,1.94,0.275,2.895,0.496c7.336,1.697,12.406,6.082,15.275,13.016
			c0.271,0.652,0.545,0.955,1.27,0.861c0.545-0.072,1.109-0.031,1.664-0.006c1.471,0.07,2.6,1.152,2.621,2.625
			c0.039,2.797,0.037,5.596,0.002,8.393c-0.02,1.42-0.996,2.443-2.424,2.598c-0.74,0.08-1.492,0.064-2.238,0.047
			c-0.396-0.008-0.596,0.1-0.746,0.494c-2.158,5.676-6.026,9.732-11.586,12.17c-0.721,0.315-1.467,0.59-2.227,0.795
			c-0.474,0.127-0.582,0.35-0.576,0.801c0.022,1.771,0.01,3.545,0.01,5.318c0,1.889-0.158,2.078-2,2.358
			c-0.016,0.132-0.047,0.273-0.049,0.416c-0.002,4.978-0.002,9.955,0,14.933c0,0.104,0.021,0.211,0.033,0.315
			c-0.941,0-1.881,0-2.82,0c0.01-0.104,0.031-0.211,0.031-0.315c0.002-4.953,0.002-9.904,0-14.857c0-0.164-0.029-0.33-0.047-0.525
			c-0.431,0-0.822,0-1.302,0c0,0.283,0,0.533,0,0.781c0,4.162-0.002,8.326,0.003,12.488c0,0.811,0.021,1.621,0.03,2.43
			C24.229,65.631,23.289,65.631,22.348,65.631z M25.834,39.64c10.222-0.041,18.463-8.308,18.435-18.487
			C44.238,11,35.971,2.746,25.816,2.73C15.641,2.715,7.295,11.092,7.352,21.266C7.408,31.443,15.693,39.681,25.834,39.64z
			 M26.457,45.803c-1.139,0-2.217,0-3.334,0c0,0.479,0,0.894,0,1.33c1.808,0,3.586,0,5.367,0c0-1.651,0-3.262,0-4.817
			c-1.807,0-3.566,0-5.367,0c0,0.207,0,0.451,0,0.766c1.111,0,2.211,0,3.334,0C26.457,43.998,26.457,44.844,26.457,45.803z
			 M4.924,17.127c-0.547,0-1.088,0-1.631,0c0,2.736,0,5.43,0,8.113c0.59,0,1.133,0,1.627,0c-0.1-1.377-0.268-2.713-0.268-4.049
			C4.652,19.859,4.822,18.525,4.924,17.127z M46.6,17.121c0.514,2.723,0.5,5.406,0.01,8.127c0.604,0,1.146,0,1.725,0
			c0-2.711,0-5.402,0-8.127C47.762,17.121,47.221,17.121,46.6,17.121z"/>
		<path fill="#3853A4" d="M25.168,65.631c-0.01-0.809-0.03-1.619-0.03-2.43c-0.005-4.162-0.003-8.326-0.003-12.488
			c0-0.248,0-0.498,0-0.78c0.479,0,0.871,0,1.302,0c0.018,0.194,0.047,0.36,0.047,0.524c0.002,4.953,0.002,9.903,0,14.856
			c0,0.105-0.021,0.211-0.031,0.316C26.023,65.631,25.596,65.631,25.168,65.631z"/>
		<path fill="#FFFFFF" d="M25.834,39.64C15.693,39.681,7.408,31.443,7.352,21.266C7.295,11.092,15.641,2.715,25.816,2.73
			C35.971,2.746,44.238,11,44.268,21.152C44.297,31.332,36.055,39.599,25.834,39.64z M41.566,21.27
			c-0.076-0.793-0.119-1.584-0.234-2.363C40.023,9.967,31.404,3.939,22.6,5.797C11.389,8.162,6.375,21.371,13.203,30.564
			c1.504,2.023,3.396,3.592,5.656,4.712c1.111,0.554,2.008,0.074,2.176-1.155c0.021-0.147,0.023-0.297,0.037-0.447
			c0.242-2.832,3.207-4.879,5.936-4.102c2.087,0.596,3.355,2.148,3.558,4.348c0.135,1.47,1.053,1.979,2.356,1.272
			C38.451,32.199,41.256,27.51,41.566,21.27z M28.525,34.178c-0.002-1.506-1.226-2.729-2.721-2.725
			c-1.503,0.006-2.714,1.227-2.712,2.735c0.003,1.502,1.226,2.728,2.722,2.724C27.311,36.91,28.527,35.683,28.525,34.178z"/>
		<path fill="#FFFFFF" d="M26.457,45.803c0-0.959,0-1.805,0-2.723c-1.123,0-2.223,0-3.334,0c0-0.313,0-0.56,0-0.767
			c1.801,0,3.562,0,5.367,0c0,1.558,0,3.166,0,4.818c-1.781,0-3.561,0-5.367,0c0-0.438,0-0.852,0-1.33
			C24.24,45.803,25.318,45.803,26.457,45.803z"/>
		<path fill="#FFFFFF" d="M46.6,17.121c0.621,0,1.162,0,1.733,0c0,2.725,0,5.416,0,8.127c-0.578,0-1.121,0-1.725,0
			C47.1,22.527,47.113,19.844,46.6,17.121z"/>
		<path d="M41.566,21.27c-0.312,6.24-3.115,10.93-8.646,13.924c-1.305,0.707-2.223,0.195-2.356-1.273
			c-0.201-2.199-1.472-3.752-3.558-4.348c-2.729-0.777-5.692,1.27-5.936,4.102c-0.014,0.15-0.018,0.299-0.037,0.447
			c-0.168,1.23-1.063,1.709-2.176,1.156c-2.26-1.121-4.152-2.689-5.656-4.713C6.375,21.371,11.389,8.162,22.6,5.797
			c8.805-1.857,17.424,4.17,18.731,13.109C41.447,19.686,41.49,20.477,41.566,21.27z M33.014,31.941
			c4.893-3.115,6.981-9.395,5.045-15.037c-1.871-5.447-7.095-8.439-10.886-8.521c0,1.291,0,2.584,0,3.889c-0.938,0-1.805,0-2.741,0
			c0-1.324,0-2.617,0-3.91c-4.099,0.186-9.384,3.377-11.074,9.174C11.68,23.28,14.143,29.052,18.61,31.94
			c1.277-3.252,3.613-5.213,7.147-5.234C29.324,26.682,31.699,28.617,33.014,31.941z"/>
		<path d="M28.525,34.178c0.002,1.505-1.215,2.732-2.711,2.734c-1.496,0.004-2.719-1.222-2.722-2.724
			c-0.002-1.509,1.209-2.729,2.712-2.735C27.301,31.449,28.523,32.672,28.525,34.178z"/>
		<path fill="#F2C617" d="M33.014,31.941c-1.314-3.324-3.689-5.26-7.257-5.236c-3.534,0.021-5.87,1.982-7.147,5.234
			c-4.467-2.889-6.93-8.66-5.252-14.404c1.69-5.797,6.977-8.988,11.074-9.174c0,1.293,0,2.586,0,3.91c0.938,0,1.803,0,2.741,0
			c0-1.305,0-2.598,0-3.889c3.791,0.082,9.015,3.074,10.886,8.521C39.996,22.547,37.906,28.826,33.014,31.941z M17.629,23.184
			c4.576,0,9.091,0,13.609,0c0-0.914,0-1.777,0-2.629c-4.564,0-9.08,0-13.609,0C17.629,21.447,17.629,22.295,17.629,23.184z
			 M20.371,15.76c0,0.926,0,1.785,0,2.648c0.918,0,1.795,0,2.66,0c0-0.91,0-1.77,0-2.648C22.133,15.76,21.287,15.76,20.371,15.76z
			 M27.158,15.773c-0.928,0-1.789,0-2.688,0c0,0.898,0,1.758,0,2.641c0.909,0,1.786,0,2.688,0
			C27.158,17.525,27.158,16.684,27.158,15.773z M28.564,18.428c0.922,0,1.785,0,2.686,0c0-0.891,0-1.75,0-2.643
			c-0.905,0-1.78,0-2.686,0C28.564,16.676,28.564,17.52,28.564,18.428z"/>
		<path d="M17.629,23.184c0-0.889,0-1.736,0-2.629c4.529,0,9.045,0,13.609,0c0,0.852,0,1.715,0,2.629
			C26.719,23.184,22.205,23.184,17.629,23.184z"/>
		<path d="M20.371,15.76c0.916,0,1.762,0,2.66,0c0,0.879,0,1.738,0,2.648c-0.865,0-1.742,0-2.66,0
			C20.371,17.545,20.371,16.686,20.371,15.76z"/>
		<path d="M27.158,15.773c0,0.91,0,1.752,0,2.641c-0.9,0-1.777,0-2.688,0c0-0.883,0-1.742,0-2.641
			C25.369,15.773,26.23,15.773,27.158,15.773z"/>
		<path d="M28.564,18.428c0-0.908,0-1.752,0-2.643c0.903,0,1.778,0,2.686,0c0,0.893,0,1.752,0,2.643
			C30.35,18.428,29.486,18.428,28.564,18.428z"/>
	</g>
	<g>
		<text transform="matrix(1 0 0 1 -2.441406e-004 84.4854)" font-family="'Montserrat-UltraLight'" font-size="10">OXIMETRY</text>
		
			<text transform="matrix(1 0 0 1 -2.441406e-004 84.4854)" fill="none" stroke="#020303" stroke-width="0.5" stroke-miterlimit="10" font-family="'Montserrat-UltraLight'" font-size="10">OXIMETRY</text>
	</g>
</g>
</svg>
