<?xml version="1.0" encoding="utf-8"?>
<!-- Generator: Adobe Illustrator 16.0.0, SVG Export Plug-In . SVG Version: 6.00 Build 0)  -->
<!DOCTYPE svg PUBLIC "-//W3C//DTD SVG 1.1//EN" "http://www.w3.org/Graphics/SVG/1.1/DTD/svg11.dtd">
<svg version="1.1" id="Layer_1" xmlns="http://www.w3.org/2000/svg" xmlns:xlink="http://www.w3.org/1999/xlink" x="0px" y="0px"
	 width="64.842px" height="65.631px" viewBox="0 0 64.842 65.631" enable-background="new 0 0 64.842 65.631" xml:space="preserve">
<rect x="-16.677" y="-2.333" fill="#FFFFFF" width="100.667" height="90.667"/>
<g display="none">
	<g display="inline">
		<path fill-rule="evenodd" clip-rule="evenodd" d="M-5.677,27.592c0.3-0.9,0.947-1.211,1.866-1.205
			c3.78,0.02,7.561,0.006,11.341,0.01c1.239,0,1.633,0.314,1.933,1.502c0.464,1.84,0.927,3.68,1.393,5.52
			c0.035,0.143,0.089,0.279,0.171,0.531c0.155-0.285,0.264-0.48,0.367-0.678c1.362-2.586,2.726-5.17,4.086-7.756
			c0.268-0.51,0.589-0.945,1.219-1.018c0.848-0.098,1.428,0.334,1.701,1.299c0.655,2.318,1.301,4.639,1.95,6.959
			c0.473,1.684,0.944,3.367,1.42,5.049c0.05,0.176,0.121,0.348,0.303,0.52c0.103-0.875,0.212-1.748,0.309-2.625
			c0.637-5.791,1.272-11.584,1.903-17.375c0.447-4.096,0.887-8.191,1.33-12.287c0.028-0.254,0.06-0.51,0.106-0.762
			C25.862,4.51,26.405,4.014,27.103,4c0.715-0.012,1.333,0.43,1.464,1.178c0.241,1.387,0.421,2.783,0.615,4.178
			c0.758,5.432,1.51,10.863,2.265,16.295c0.062,0.441,0.128,0.883,0.199,1.379c1.053,0,2.074-0.002,3.097,0.002
			c1.559,0.006,3.118-0.01,4.676,0.037c0.721,0.02,1.215,0.527,1.311,1.18c0.099,0.664-0.191,1.279-0.79,1.527
			c-0.286,0.117-0.621,0.158-0.935,0.16c-2.777,0.012-5.554,0.012-8.33,0.004c-1.155-0.004-1.627-0.391-1.795-1.553
			c-0.468-3.23-0.906-6.467-1.357-9.699c-0.044-0.314-0.099-0.625-0.235-0.934c-0.219,1.982-0.439,3.967-0.657,5.949
			c-0.499,4.541-0.997,9.08-1.493,13.621c-0.318,2.906-0.632,5.814-0.948,8.721c-0.018,0.17-0.029,0.342-0.063,0.508
			c-0.163,0.787-0.663,1.26-1.368,1.301c-0.709,0.041-1.274-0.357-1.504-1.137c-0.411-1.391-0.787-2.791-1.179-4.186
			c-1.113-3.963-2.227-7.924-3.341-11.885c-0.057-0.201-0.13-0.395-0.236-0.717c-0.165,0.285-0.281,0.471-0.383,0.664
			c-1.392,2.643-2.783,5.285-4.169,7.93c-0.319,0.609-0.742,1.041-1.49,1.006c-0.715-0.031-1.188-0.434-1.399-1.268
			c-0.688-2.707-1.391-5.41-2.019-8.133c-0.16-0.691-0.439-0.852-1.107-0.844c-3.246,0.035-6.493,0.002-9.739,0.025
			c-0.919,0.006-1.566-0.305-1.866-1.205C-5.677,27.934-5.677,27.764-5.677,27.592z"/>
		<path fill-rule="evenodd" clip-rule="evenodd" fill="#F2C617" d="M56.041,29.939c-0.77,0.002-1.539,0.018-2.307-0.002
			c-0.99-0.027-1.609-0.602-1.607-1.453c0.002-0.85,0.625-1.43,1.615-1.441c1.537-0.02,3.076-0.021,4.613,0.002
			c0.947,0.014,1.566,0.596,1.588,1.416c0.021,0.83-0.625,1.445-1.596,1.475C57.58,29.959,56.811,29.939,56.041,29.939z"/>
		<path fill-rule="evenodd" clip-rule="evenodd" fill="#F2C617" d="M46.236,29.939c-0.748-0.002-1.496,0.021-2.242-0.006
			c-0.94-0.035-1.55-0.625-1.548-1.447c0.003-0.824,0.61-1.422,1.553-1.439c1.472-0.027,2.946-0.027,4.419,0
			c0.938,0.016,1.545,0.619,1.545,1.443s-0.609,1.41-1.549,1.443C47.689,29.961,46.963,29.939,46.236,29.939z"/>
	</g>
	<g display="inline">
		
			<text transform="matrix(1 0 0 1 11.2183 71.9561)" stroke="#020303" stroke-width="0.5" stroke-miterlimit="10" font-family="'Montserrat-UltraLight'" font-size="10">PULSE</text>
	</g>
</g>
<g>
	<g>
		<path fill-rule="evenodd" clip-rule="evenodd" d="M-0.787,28.457c0.24-0.967,0.398-1.965,0.732-2.898
			c1.768-4.93,6.482-8.217,11.541-8.102c5.324,0.121,9.814,3.445,11.469,8.49c1.936,5.9-1.111,12.504-6.885,14.869
			c-0.465,0.189-0.699,0.402-0.625,0.922c0.045,0.313,0.008,0.639,0.008,0.959c-0.002,2.293-0.871,3.439-3.047,4.023
			c-1.17,9.566,4.98,16.531,13.143,16.912c5.477,0.256,10.982,0.199,16.467,0.01c7.361-0.256,13.049-6.338,13.184-13.885
			c0.076-4.229,0.016-8.461,0.014-12.689c0-0.125-0.021-0.248-0.041-0.432c-1.133,0-2.238-0.004-3.344,0.004
			c-0.096,0.002-0.221,0.051-0.281,0.121c-0.799,0.926-1.842,1.264-3.121,1.254c0,0.26,0,0.482,0,0.707
			c0,3.354,0.023,6.707-0.006,10.063c-0.039,4.568-3.625,8.012-8.152,7.871c-3.977-0.123-7.277-3.428-7.447-7.477
			c-0.033-0.807-0.004-1.617-0.004-2.459c-1.02-0.186-1.844-0.619-2.449-1.43c-0.629-0.842-0.693-1.809-0.662-2.805
			c0.014-0.471,0.027-0.943-0.012-1.408c-0.018-0.203-0.117-0.463-0.27-0.582c-2.307-1.805-3.168-4.139-2.662-7.016
			c0.445-2.543,0.852-5.094,1.281-7.639c0.129-0.758,0.533-1.102,1.139-1.006c0.59,0.094,0.875,0.594,0.752,1.328
			c-0.443,2.629-0.881,5.262-1.33,7.891c-0.59,3.451,2.211,6.203,5.891,5.775c2.986-0.346,4.893-2.73,4.438-5.684
			c-0.539-3.523-1.154-7.033-1.762-10.545c-0.275-1.592-1.34-2.656-2.828-2.924c-1.391-0.25-2.727,0.404-3.588,1.713
			c-0.178,0.268-0.457,0.588-0.732,0.635c-0.295,0.051-0.715-0.113-0.947-0.328c-0.355-0.33-0.229-0.771-0.014-1.18
			c0.986-1.871,3.15-3.006,5.299-2.768c2.186,0.242,4.084,1.801,4.559,3.922c0.412,1.852,0.682,3.734,0.994,5.607
			c0.342,2.063,0.742,4.119,0.969,6.195c0.256,2.359-0.682,4.303-2.508,5.789c-0.412,0.334-0.607,0.654-0.553,1.176
			c0.043,0.4-0.014,0.813,0.014,1.217c0.139,2.039-0.844,3.584-3.076,4.08c-0.117,2.176-0.119,4.324,1.516,6.064
			c1.527,1.623,3.418,2.256,5.582,1.789c2.084-0.451,3.547-1.734,4.26-3.764c0.23-0.652,0.363-1.373,0.371-2.064
			c0.037-3.439,0.018-6.879,0.016-10.318c0-0.123-0.029-0.246-0.053-0.438c-1.125,0-2.232,0.002-3.338,0
			c-0.979-0.002-1.455-0.318-1.457-0.957c-0.004-0.643,0.473-0.963,1.451-0.963c1.773-0.004,3.547,0.002,5.32-0.004
			c1.471-0.002,2.01-0.539,2.01-2.01c0.004-7.5,0.002-14.998,0.004-22.496c0-0.299-0.008-0.605,0.055-0.893
			c0.096-0.447,0.41-0.688,0.871-0.699s0.795,0.207,0.912,0.65c0.074,0.283,0.078,0.592,0.078,0.889
			c0.004,7.434,0.004,14.869,0.004,22.303c0,0.271,0,0.541,0,0.846c0.271,0.016,0.459,0.035,0.646,0.037
			c3.033,0.002,6.066,0.002,9.1,0c0.801,0,0.814-0.018,0.816-0.838c0-9.912-0.006-19.826,0.014-29.738
			c0-0.652-0.188-0.836-0.834-0.83c-3.012,0.033-6.025,0.016-9.037,0.016c-0.209,0-0.418,0-0.705,0c0,1.143,0.002,2.225,0,3.307
			c-0.002,1.051-0.297,1.498-0.98,1.49c-0.662-0.008-0.939-0.434-0.941-1.453c-0.002-0.939,0.008-1.879-0.002-2.82
			c-0.012-1.342-0.584-1.918-1.908-1.918C43.123,1.92,37.717,1.932,32.313,1.91c-0.635-0.004-0.799,0.207-0.797,0.813
			c0.02,4.656,0.012,9.314,0.01,13.971c0,0.234,0.016,0.475-0.023,0.703c-0.08,0.479-0.379,0.766-0.865,0.799
			s-0.828-0.205-0.955-0.676c-0.066-0.244-0.074-0.506-0.074-0.76c-0.004-4.615,0.025-9.23-0.021-13.844
			C29.572,1.557,29.973,0.555,31.26,0c6.066,0,12.135,0,18.201,0c0.625,0.344,1.244,0.699,1.877,1.029
			c0.281,0.148,0.588,0.348,0.885,0.352c3.395,0.023,6.791,0.01,10.186,0.018c1.547,0.004,2.432,0.883,2.434,2.42
			c0.004,10.121,0.002,20.242,0,30.365c-0.002,1.525-0.889,2.424-2.428,2.443c-1.516,0.02-3.031,0.004-4.549,0.004
			c-0.225,0-0.451,0-0.729,0c0,0.318,0,0.549,0,0.781c0,3.822,0.018,7.645-0.01,11.467c-0.008,1.127-0.043,2.271-0.24,3.377
			c-1.043,5.861-4.352,9.969-9.844,12.217c-1.457,0.598-3.084,0.783-4.633,1.158c-5.768,0-11.535,0-17.305,0
			c-1.043-0.207-2.111-0.328-3.125-0.637c-5.609-1.707-9.311-5.387-10.938-11.014c-0.447-1.553-0.469-3.236-0.627-4.865
			c-0.076-0.797-0.012-1.609-0.012-2.391c-2.139-0.514-3.104-1.74-3.109-3.861c0-0.406-0.029-0.814,0.008-1.217
			c0.041-0.428-0.117-0.617-0.523-0.787C3.525,39.494,1.236,37.156,0,33.85c-0.369-0.988-0.531-2.055-0.787-3.086
			C-0.787,29.996-0.787,29.227-0.787,28.457z"/>
		<path fill-rule="evenodd" clip-rule="evenodd" d="M21.615,29.625c0.004-5.611-4.633-10.252-10.24-10.248
			C5.752,19.381,1.139,23.996,1.137,29.619s4.605,10.234,10.232,10.24C16.982,39.865,21.613,35.242,21.615,29.625z"/>
		<path fill-rule="evenodd" clip-rule="evenodd" d="M9.217,41.711c0.098,0.986-0.387,2.188,0.777,2.816
			c0.881,0.477,1.943,0.498,2.82-0.037c1.088-0.666,0.621-1.818,0.719-2.779C12.078,41.711,10.699,41.711,9.217,41.711z"/>
		<path fill-rule="evenodd" clip-rule="evenodd" d="M31.633,41.686c0.121,0.973-0.412,2.166,0.799,2.898
			c0.631,0.383,2.469,0.275,2.945-0.184c0.846-0.818,0.461-1.842,0.498-2.715C34.436,41.686,33.08,41.686,31.633,41.686z"/>
		<path fill-rule="evenodd" clip-rule="evenodd" fill="#FFFFFF" d="M-0.787,30.764C-0.531,31.795-0.369,32.861,0,33.85
			c1.236,3.307,3.525,5.645,6.779,7.01c0.406,0.17,0.564,0.359,0.523,0.787c-0.037,0.402-0.008,0.811-0.008,1.217
			c0.006,2.121,0.971,3.348,3.109,3.861c0,0.781-0.064,1.594,0.012,2.391c0.158,1.629,0.18,3.313,0.627,4.865
			c1.627,5.627,5.328,9.307,10.938,11.014c1.014,0.309,2.082,0.43,3.125,0.637c-8.631,0-17.262,0-25.893,0
			C-0.787,54.008-0.787,42.387-0.787,30.764z"/>
		<path fill-rule="evenodd" clip-rule="evenodd" fill="#FFFFFF" d="M42.41,65.631c1.549-0.375,3.176-0.561,4.633-1.158
			c5.492-2.248,8.801-6.355,9.844-12.217c0.197-1.105,0.232-2.25,0.24-3.377c0.027-3.822,0.01-7.645,0.01-11.467
			c0-0.232,0-0.463,0-0.781c0.277,0,0.504,0,0.729,0c1.518,0,3.033,0.016,4.549-0.004c1.539-0.02,2.426-0.918,2.428-2.443
			c0.002-10.123,0.004-20.244,0-30.365c-0.002-1.537-0.887-2.416-2.434-2.42c-3.395-0.008-6.791,0.006-10.186-0.018
			c-0.297-0.004-0.604-0.203-0.885-0.352C50.705,0.699,50.086,0.344,49.461,0c5.17,0,10.34,0,15.512,0c0,21.877,0,43.754,0,65.631
			C57.451,65.631,49.932,65.631,42.41,65.631z"/>
		<path fill-rule="evenodd" clip-rule="evenodd" d="M37.193,34.695c-0.029,1.756-1.529,3.256-3.283,3.285
			c-0.611,0.012-1.061-0.32-1.08-0.852c-0.02-0.568,0.27-0.941,0.848-1.014c0.988-0.125,1.525-0.662,1.648-1.648
			c0.074-0.578,0.447-0.869,1.014-0.85C36.873,33.637,37.205,34.086,37.193,34.695z"/>
		<path fill-rule="evenodd" clip-rule="evenodd" fill="#20B681" d="M21.615,29.625c-0.002,5.617-4.633,10.24-10.246,10.234
			c-5.627-0.006-10.234-4.617-10.232-10.24s4.615-10.238,10.238-10.242C16.982,19.373,21.619,24.014,21.615,29.625z M12.326,32.367
			c0-1.582,0-3.162-0.002-4.744c0-1.006-0.283-1.455-0.924-1.475c-0.678-0.02-0.996,0.449-0.996,1.48
			c-0.002,3.141-0.002,6.281,0.002,9.422c0,0.232,0.008,0.473,0.061,0.699c0.125,0.549,0.559,0.828,1.098,0.715
			c0.592-0.125,0.76-0.559,0.76-1.1C12.324,35.699,12.324,34.033,12.326,32.367z M7.662,22.203
			c-0.496-0.012-0.945,0.414-0.969,0.916c-0.025,0.564,0.457,1.084,1.02,1.098c0.477,0.014,0.932-0.449,0.936-0.947
			C8.652,22.729,8.18,22.219,7.662,22.203z M18.793,33.379c0.016-0.512-0.48-1.014-1.023-1.037c-0.5-0.021-0.953,0.393-0.986,0.896
			c-0.033,0.51,0.461,1.047,0.984,1.068C18.309,34.33,18.775,33.906,18.793,33.379z M4.98,26.904
			c0.551-0.004,0.992-0.436,0.984-0.963c-0.008-0.529-0.496-0.984-1.057-0.984c-0.52,0.002-0.939,0.406-0.947,0.918
			C3.951,26.385,4.467,26.906,4.98,26.904z M5.967,33.27c-0.012-0.492-0.467-0.932-0.961-0.928
			c-0.537,0.006-1.043,0.492-1.045,1.006c-0.004,0.537,0.434,0.963,0.984,0.961C5.459,34.307,5.979,33.777,5.967,33.27z
			 M16.037,23.189c0.014-0.516-0.387-0.959-0.887-0.988c-0.525-0.029-1.057,0.504-1.057,1.064c0,0.465,0.416,0.922,0.867,0.949
			C15.531,24.252,16.023,23.783,16.037,23.189z M17.762,26.904c0.508,0.006,1.037-0.523,1.029-1.027
			c-0.008-0.508-0.432-0.918-0.949-0.92c-0.564-0.002-1.051,0.449-1.059,0.979C16.777,26.471,17.209,26.898,17.762,26.904z
			 M11.4,21.213c-0.529-0.016-0.959,0.404-0.982,0.961c-0.025,0.563,0.361,1.01,0.895,1.039c0.57,0.033,1-0.389,1.006-0.982
			C12.322,21.656,11.938,21.229,11.4,21.213z M4.979,29.652c0.018-0.529-0.4-0.951-0.963-0.973c-0.592-0.02-1.063,0.398-1.061,0.943
			c0,0.512,0.457,0.947,1,0.955C4.506,30.584,4.959,30.174,4.979,29.652z M18.758,30.58c0.555,0.01,1.002-0.393,1.02-0.922
			c0.02-0.549-0.375-0.953-0.949-0.977c-0.607-0.023-1.047,0.371-1.049,0.938C17.779,30.158,18.197,30.57,18.758,30.58z"/>
		<path fill-rule="evenodd" clip-rule="evenodd" fill="#3853A4" d="M9.217,41.711c1.482,0,2.861,0,4.316,0
			c-0.098,0.961,0.369,2.113-0.719,2.779c-0.877,0.535-1.939,0.514-2.82,0.037C8.83,43.898,9.314,42.697,9.217,41.711z"/>
		<path fill-rule="evenodd" clip-rule="evenodd" fill="#FFFFFF" d="M31.633,41.686c1.447,0,2.803,0,4.242,0
			c-0.037,0.873,0.348,1.896-0.498,2.715c-0.477,0.459-2.314,0.566-2.945,0.184C31.221,43.852,31.754,42.658,31.633,41.686z"/>
		<path fill-rule="evenodd" clip-rule="evenodd" fill="#FFFFFF" d="M12.324,32.367c0,1.666,0,3.332,0,4.998
			c0,0.541-0.168,0.975-0.76,1.1c-0.539,0.113-0.973-0.166-1.098-0.715c-0.053-0.227-0.061-0.467-0.061-0.699
			c-0.004-3.141-0.004-6.281-0.002-9.422c0-1.031,0.318-1.5,0.996-1.48c0.641,0.02,0.924,0.469,0.924,1.475
			C12.326,29.205,12.326,30.785,12.324,32.367z"/>
		<path fill-rule="evenodd" clip-rule="evenodd" d="M7.662,22.203c0.518,0.016,0.99,0.525,0.986,1.066
			c-0.004,0.498-0.459,0.961-0.936,0.947c-0.563-0.014-1.045-0.533-1.02-1.098C6.717,22.617,7.166,22.191,7.662,22.203z"/>
		<path fill-rule="evenodd" clip-rule="evenodd" d="M18.793,33.379c-0.018,0.527-0.484,0.951-1.025,0.928
			c-0.523-0.021-1.018-0.559-0.984-1.068c0.033-0.504,0.486-0.918,0.986-0.896C18.313,32.365,18.809,32.867,18.793,33.379z"/>
		<path fill-rule="evenodd" clip-rule="evenodd" d="M4.98,26.904c-0.514,0.002-1.029-0.52-1.02-1.029
			c0.008-0.512,0.428-0.916,0.947-0.918c0.561,0,1.049,0.455,1.057,0.984C5.973,26.469,5.531,26.9,4.98,26.904z"/>
		<path fill-rule="evenodd" clip-rule="evenodd" d="M5.967,33.27c0.012,0.508-0.508,1.037-1.021,1.039
			c-0.551,0.002-0.988-0.424-0.984-0.961c0.002-0.514,0.508-1,1.045-1.006C5.5,32.338,5.955,32.777,5.967,33.27z"/>
		<path fill-rule="evenodd" clip-rule="evenodd" d="M16.037,23.189c-0.014,0.594-0.506,1.063-1.076,1.025
			c-0.451-0.027-0.867-0.484-0.867-0.949c0-0.561,0.531-1.094,1.057-1.064C15.65,22.23,16.051,22.674,16.037,23.189z"/>
		<path fill-rule="evenodd" clip-rule="evenodd" d="M17.762,26.904c-0.553-0.006-0.984-0.434-0.979-0.969
			c0.008-0.529,0.494-0.98,1.059-0.979c0.518,0.002,0.941,0.412,0.949,0.92C18.799,26.381,18.27,26.91,17.762,26.904z"/>
		<path fill-rule="evenodd" clip-rule="evenodd" d="M11.4,21.213c0.537,0.016,0.922,0.443,0.918,1.018
			c-0.006,0.594-0.436,1.016-1.006,0.982c-0.533-0.029-0.92-0.477-0.895-1.039C10.441,21.617,10.871,21.197,11.4,21.213z"/>
		<path fill-rule="evenodd" clip-rule="evenodd" d="M4.979,29.652c-0.02,0.521-0.473,0.932-1.023,0.926
			c-0.543-0.008-1-0.443-1-0.955c-0.002-0.545,0.469-0.963,1.061-0.943C4.578,28.701,4.996,29.123,4.979,29.652z"/>
		<path fill-rule="evenodd" clip-rule="evenodd" d="M18.758,30.58c-0.561-0.01-0.979-0.422-0.979-0.961
			c0.002-0.566,0.441-0.961,1.049-0.938c0.574,0.023,0.969,0.428,0.949,0.977C19.76,30.188,19.313,30.59,18.758,30.58z"/>
	</g>
	<g>
		
			<text transform="matrix(1 0 0 1 -14.4971 84.4834)" stroke="#020303" stroke-width="0.5" stroke-miterlimit="10" font-family="'Montserrat-UltraLight'" font-size="10">BLOOD PRESSURE</text>
	</g>
</g>
</svg>
