<?xml version="1.0" encoding="utf-8"?>
<!-- Generator: Adobe Illustrator 16.0.0, SVG Export Plug-In . SVG Version: 6.00 Build 0)  -->
<!DOCTYPE svg PUBLIC "-//W3C//DTD SVG 1.1//EN" "http://www.w3.org/Graphics/SVG/1.1/DTD/svg11.dtd">
<svg version="1.1" id="Layer_1" xmlns="http://www.w3.org/2000/svg" xmlns:xlink="http://www.w3.org/1999/xlink" x="0px" y="0px"
	 width="73.754px" height="72.449px" viewBox="0 0 73.754 72.449" enable-background="new 0 0 73.754 72.449" xml:space="preserve">
<rect x="-50.5" y="-30.356" fill-rule="evenodd" clip-rule="evenodd" fill="#FFFFFF" width="159.5" height="128"/>
<g>
	<path fill-rule="evenodd" clip-rule="evenodd" d="M38.83,0c0,1.902,0,3.807,0,5.754c-0.867,0-1.635,0-2.549,0
		c0-1.91,0-3.832,0-5.754C37.131,0,37.98,0,38.83,0z"/>
	<path fill-rule="evenodd" clip-rule="evenodd" d="M1.322,34.961c1.902,0,3.805,0,5.754,0c0,0.867,0,1.635,0,2.547
		c-1.912,0-3.834,0-5.754,0C1.322,36.658,1.322,35.811,1.322,34.961z"/>
	<path fill-rule="evenodd" clip-rule="evenodd" d="M37.447,61.385c-0.266-0.316-0.5-0.641-0.781-0.922
		c-6.066-6.07-12.129-12.146-18.213-18.201c-2.191-2.18-3.732-4.693-4.422-7.732c-1.658-7.307,3.092-15.129,10.35-16.965
		c4.654-1.178,8.912-0.35,12.729,2.586c0.357,0.275,0.576,0.238,0.912-0.018c7.645-5.797,18.307-3.113,22.172,5.637
		c2.273,5.145,1.393,11.506-2.961,15.891c-6.48,6.525-13,13.014-19.504,19.516C37.695,61.209,37.654,61.232,37.447,61.385z
		 M37.465,23.748c-0.105-0.1-0.283-0.248-0.443-0.412c-2.973-3.045-6.561-4.246-10.781-3.684
		c-5.223,0.693-9.811,5.672-10.057,10.961c-0.176,3.793,1.068,7,3.775,9.682c4.758,4.713,9.475,9.467,14.207,14.205
		c1.111,1.113,2.225,2.227,3.361,3.363c0.156-0.131,0.266-0.215,0.363-0.311c5.836-5.834,11.689-11.654,17.498-17.514
		c2.814-2.838,3.955-6.281,3.418-10.26c-1.127-8.342-10.672-12.982-17.885-8.652C39.705,21.855,38.645,22.844,37.465,23.748z"/>
	<path fill-rule="evenodd" clip-rule="evenodd" d="M73.754,35.043c0,0.801,0,1.568,0,2.383c-1.908,0-3.799,0-5.727,0
		c0-0.799,0-1.566,0-2.383C69.936,35.043,71.826,35.043,73.754,35.043z"/>
	<path fill-rule="evenodd" clip-rule="evenodd" d="M38.738,72.449c-0.807,0-1.557,0-2.363,0c0-1.908,0-3.799,0-5.734
		c0.773,0,1.539,0,2.363,0C38.738,68.598,38.738,70.486,38.738,72.449z"/>
	<path fill-rule="evenodd" clip-rule="evenodd" d="M12.775,9.883c1.332,1.32,2.678,2.656,4.031,4
		c-0.527,0.51-1.08,1.043-1.588,1.533c-1.305-1.316-2.652-2.672-4-4.033C11.684,10.936,12.238,10.4,12.775,9.883z"/>
	<path fill-rule="evenodd" clip-rule="evenodd" d="M62.441,9.867c0.473,0.486,0.996,1.025,1.469,1.514
		c-1.348,1.34-2.701,2.688-4.074,4.051c-0.439-0.459-0.973-1.016-1.445-1.508C59.699,12.613,61.049,11.262,62.441,9.867z"/>
	<path fill-rule="evenodd" clip-rule="evenodd" d="M15.252,56.996c0.502,0.5,1.047,1.041,1.549,1.543
		c-1.359,1.355-2.703,2.693-4.061,4.049c-0.457-0.502-0.984-1.082-1.475-1.623C12.523,59.715,13.865,58.375,15.252,56.996z"/>
	<path fill-rule="evenodd" clip-rule="evenodd" d="M59.984,57.035c1.273,1.289,2.605,2.641,3.955,4.01
		c-0.512,0.5-1.072,1.053-1.602,1.57c-1.34-1.332-2.688-2.668-4.059-4.029C58.834,58.082,59.416,57.551,59.984,57.035z"/>
	<path fill-rule="evenodd" clip-rule="evenodd" d="M50.291,2.279c0.764,0.316,1.471,0.607,2.252,0.93
		c-0.736,1.783-1.457,3.531-2.213,5.367c-0.746-0.303-1.451-0.59-2.258-0.916C48.814,5.861,49.541,4.098,50.291,2.279z"/>
	<path fill-rule="evenodd" clip-rule="evenodd" d="M4.533,21.24c1.799,0.744,3.547,1.469,5.365,2.223
		c-0.305,0.758-0.59,1.465-0.908,2.254c-1.793-0.74-3.541-1.463-5.377-2.223C3.92,22.742,4.215,22.021,4.533,21.24z"/>
	<path fill-rule="evenodd" clip-rule="evenodd" d="M27.039,7.658c-0.785,0.318-1.492,0.605-2.258,0.914
		c-0.75-1.811-1.475-3.557-2.219-5.354c0.762-0.316,1.469-0.613,2.244-0.936C25.547,4.066,26.273,5.814,27.039,7.658z"/>
	<path fill-rule="evenodd" clip-rule="evenodd" d="M71.512,48.977c-0.33,0.787-0.627,1.496-0.941,2.252
		c-1.807-0.748-3.553-1.473-5.363-2.223c0.316-0.775,0.605-1.484,0.92-2.254C67.934,47.498,69.684,48.221,71.512,48.977z"/>
	<path fill-rule="evenodd" clip-rule="evenodd" d="M8.979,46.756c0.318,0.766,0.609,1.467,0.934,2.248
		c-1.801,0.746-3.545,1.469-5.361,2.223c-0.316-0.754-0.617-1.471-0.943-2.246C5.412,48.232,7.162,47.51,8.979,46.756z"/>
	<path fill-rule="evenodd" clip-rule="evenodd" d="M52.555,69.254c-0.791,0.326-1.498,0.617-2.256,0.928
		c-0.75-1.805-1.475-3.553-2.229-5.375c0.76-0.309,1.467-0.598,2.256-0.92C51.07,65.684,51.797,67.428,52.555,69.254z"/>
	<path fill-rule="evenodd" clip-rule="evenodd" d="M65.205,23.469c1.811-0.752,3.557-1.477,5.367-2.229
		c0.313,0.75,0.607,1.457,0.936,2.242c-1.764,0.736-3.512,1.463-5.371,2.236C65.826,24.973,65.531,24.254,65.205,23.469z"/>
	<path fill-rule="evenodd" clip-rule="evenodd" d="M24.813,70.188c-0.771-0.318-1.463-0.605-2.252-0.934
		c0.734-1.779,1.461-3.539,2.219-5.371c0.762,0.316,1.469,0.607,2.25,0.93C26.285,66.615,25.564,68.363,24.813,70.188z"/>
	<path fill-rule="evenodd" clip-rule="evenodd" fill="#DF1F26" d="M37.465,23.748c1.18-0.904,2.24-1.893,3.457-2.621
		c7.213-4.33,16.758,0.311,17.885,8.652c0.537,3.979-0.604,7.422-3.418,10.26c-5.809,5.859-11.662,11.68-17.498,17.514
		c-0.098,0.096-0.207,0.18-0.363,0.311c-1.137-1.137-2.25-2.25-3.361-3.363c-4.732-4.738-9.449-9.492-14.207-14.205
		c-2.707-2.682-3.951-5.889-3.775-9.682c0.246-5.289,4.834-10.268,10.057-10.961c4.221-0.563,7.809,0.639,10.781,3.684
		C37.182,23.5,37.359,23.648,37.465,23.748z M28.168,21.443c-5.371-0.291-10.396,4.805-10.035,10.051c0.762,0,1.525,0,2.283,0
		c0.518-4.674,3.1-7.234,7.752-7.76C28.168,22.973,28.168,22.207,28.168,21.443z"/>
	<path fill-rule="evenodd" clip-rule="evenodd" d="M28.168,21.443c0,0.764,0,1.529,0,2.291c-4.652,0.525-7.234,3.086-7.752,7.76
		c-0.758,0-1.521,0-2.283,0C17.771,26.248,22.797,21.152,28.168,21.443z"/>
</g>
</svg>
