<?xml version="1.0" encoding="utf-8"?>
<!-- Generator: Adobe Illustrator 16.0.0, SVG Export Plug-In . SVG Version: 6.00 Build 0)  -->
<!DOCTYPE svg PUBLIC "-//W3C//DTD SVG 1.1//EN" "http://www.w3.org/Graphics/SVG/1.1/DTD/svg11.dtd">
<svg version="1.1" id="Layer_1" xmlns="http://www.w3.org/2000/svg" xmlns:xlink="http://www.w3.org/1999/xlink" x="0px" y="0px"
	 width="72px" height="63.056px" viewBox="0 0 72 63.056" enable-background="new 0 0 72 63.056" xml:space="preserve">
<rect x="-11" y="-2.333" fill="#FFFFFF" width="100.667" height="90.667"/>
<g display="none">
	<g display="inline">
		<path fill-rule="evenodd" clip-rule="evenodd" d="M0,27.592c0.3-0.9,0.947-1.211,1.866-1.205c3.78,0.02,7.561,0.006,11.341,0.01
			c1.239,0,1.633,0.314,1.933,1.502c0.464,1.84,0.927,3.68,1.393,5.52c0.035,0.143,0.089,0.279,0.171,0.531
			c0.155-0.285,0.264-0.48,0.367-0.678c1.362-2.586,2.726-5.17,4.086-7.756c0.268-0.51,0.589-0.945,1.219-1.018
			c0.848-0.098,1.428,0.334,1.701,1.299c0.655,2.318,1.301,4.639,1.95,6.959c0.473,1.684,0.944,3.367,1.42,5.049
			c0.05,0.176,0.121,0.348,0.303,0.52c0.103-0.875,0.212-1.748,0.309-2.625c0.637-5.791,1.272-11.584,1.903-17.375
			c0.447-4.096,0.887-8.191,1.33-12.287c0.028-0.254,0.06-0.51,0.106-0.762C31.539,4.51,32.082,4.014,32.779,4
			c0.715-0.012,1.333,0.43,1.464,1.178c0.241,1.387,0.421,2.783,0.615,4.178c0.758,5.432,1.51,10.863,2.265,16.295
			c0.062,0.441,0.128,0.883,0.199,1.379c1.053,0,2.074-0.002,3.097,0.002c1.559,0.006,3.118-0.01,4.676,0.037
			c0.721,0.02,1.215,0.527,1.311,1.18c0.099,0.664-0.191,1.279-0.79,1.527c-0.286,0.117-0.621,0.158-0.935,0.16
			c-2.777,0.012-5.554,0.012-8.33,0.004c-1.155-0.004-1.627-0.391-1.795-1.553c-0.468-3.23-0.906-6.467-1.357-9.699
			c-0.044-0.314-0.099-0.625-0.235-0.934c-0.219,1.982-0.439,3.967-0.657,5.949c-0.499,4.541-0.997,9.08-1.493,13.621
			c-0.318,2.906-0.632,5.814-0.948,8.721c-0.018,0.17-0.029,0.342-0.063,0.508c-0.163,0.787-0.663,1.26-1.368,1.301
			c-0.709,0.041-1.274-0.357-1.504-1.137c-0.411-1.391-0.787-2.791-1.179-4.186c-1.113-3.963-2.227-7.924-3.341-11.885
			c-0.057-0.201-0.13-0.395-0.236-0.717c-0.165,0.285-0.281,0.471-0.383,0.664c-1.392,2.643-2.783,5.285-4.169,7.93
			c-0.319,0.609-0.742,1.041-1.49,1.006c-0.715-0.031-1.188-0.434-1.399-1.268c-0.688-2.707-1.391-5.41-2.019-8.133
			c-0.16-0.691-0.439-0.852-1.107-0.844c-3.246,0.035-6.493,0.002-9.739,0.025C0.947,29.316,0.3,29.006,0,28.105
			C0,27.934,0,27.764,0,27.592z"/>
		<path fill-rule="evenodd" clip-rule="evenodd" fill="#F2C617" d="M61.718,29.939c-0.77,0.002-1.539,0.018-2.307-0.002
			c-0.99-0.027-1.609-0.602-1.607-1.453c0.002-0.85,0.625-1.43,1.615-1.441c1.537-0.02,3.076-0.021,4.613,0.002
			c0.947,0.014,1.566,0.596,1.588,1.416c0.021,0.83-0.625,1.445-1.596,1.475C63.257,29.959,62.487,29.939,61.718,29.939z"/>
		<path fill-rule="evenodd" clip-rule="evenodd" fill="#F2C617" d="M51.913,29.939c-0.748-0.002-1.496,0.021-2.242-0.006
			c-0.94-0.035-1.55-0.625-1.548-1.447c0.003-0.824,0.61-1.422,1.553-1.439c1.472-0.027,2.946-0.027,4.419,0
			c0.938,0.016,1.545,0.619,1.545,1.443s-0.609,1.41-1.549,1.443C53.366,29.961,52.64,29.939,51.913,29.939z"/>
	</g>
	<g display="inline">
		
			<text transform="matrix(1 0 0 1 16.895 71.9561)" stroke="#020303" stroke-width="0.5" stroke-miterlimit="10" font-family="'Montserrat-UltraLight'" font-size="10">PULSE</text>
	</g>
</g>
<g>
	<g>
		<path fill-rule="evenodd" clip-rule="evenodd" d="M35.359,1.621c2.4,0,4.801,0,7.199,0c0.07,0.035,0.139,0.08,0.213,0.105
			c1.531,0.49,2.297,1.51,2.318,3.1c0.008,0.639,0.006,1.279,0,1.918c-0.012,1.656-0.602,3.072-1.736,4.275
			c-0.158,0.168-0.293,0.441-0.293,0.664c-0.018,5.197-0.014,10.395-0.01,15.592c0.002,0.146,0.025,0.369,0.119,0.43
			c0.604,0.396,1.229,0.756,1.924,1.174c0-1.309-0.012-2.486,0.002-3.664c0.041-3.266,2.006-5.984,4.973-6.895
			c3.01-0.924,6.107,0.186,7.994,2.875c0.699,0.998,1.383,2.006,2.066,3.016c1.945,2.877,4.023,5.67,5.572,8.799
			c2.188,4.416,3.535,9.08,3.834,13.996c0.184,3.01,0.145,6.033,0.125,9.051c-0.02,2.951-1.91,5.527-4.691,6.547
			c-0.498,0.182-1.02,0.305-1.531,0.453c-4,0-8,0-12,0c-0.248-0.061-0.498-0.121-0.748-0.182c-3.391-0.818-5.588-3.637-5.594-7.219
			c-0.01-6.301-0.006-12.6,0.004-18.896c0.002-0.4-0.096-0.645-0.465-0.859c-1.762-1.025-3.506-2.078-5.244-3.143
			c-0.316-0.193-0.547-0.193-0.863,0c-1.686,1.033-3.375,2.064-5.09,3.045c-0.488,0.279-0.625,0.6-0.623,1.135
			c0.018,6.24,0.016,12.479,0.008,18.717c-0.002,2.551-1.016,4.602-3.088,6.115c-0.975,0.711-2.104,1.025-3.254,1.287c-4,0-8,0-12,0
			c-0.088-0.037-0.172-0.092-0.264-0.109c-2.781-0.547-4.643-2.17-5.609-4.822c-0.154-0.424-0.246-0.871-0.367-1.307
			c0-2.84,0-5.68,0-8.52c0.082-0.832,0.158-1.664,0.244-2.496c0.471-4.535,1.734-8.842,3.803-12.902
			c2.219-4.359,5.162-8.26,7.996-12.219c1.553-2.166,3.896-2.965,6.521-2.578c2.656,0.391,4.547,1.918,5.506,4.428
			c0.34,0.891,0.426,1.902,0.496,2.869c0.082,1.119,0.018,2.252,0.018,3.486c0.684-0.408,1.271-0.74,1.83-1.115
			c0.127-0.086,0.207-0.328,0.209-0.5c0.01-5.195,0.01-10.393-0.002-15.588c0-0.195-0.08-0.447-0.213-0.578
			c-2.068-2.012-2.014-4.559-1.713-7.109C33.092,2.673,34.145,2,35.359,1.621z M20.525,33.367c0.275,0,0.49,0,0.703,0
			c1.221,0,2.439,0.008,3.66-0.008c0.248-0.004,0.527-0.047,0.736-0.168c1.621-0.949,3.23-1.916,4.834-2.896
			c0.143-0.086,0.303-0.295,0.303-0.447c0-1.818,0.094-3.648-0.086-5.451c-0.217-2.162-1.543-3.578-3.629-4.143
			c-1.984-0.535-3.738,0.002-5.072,1.588c-0.73,0.867-1.346,1.836-1.98,2.781c-2.049,3.051-4.289,5.979-5.936,9.285
			c-2.082,4.18-3.352,8.6-3.637,13.254c-0.178,2.871-0.145,5.758-0.125,8.635c0.021,2.992,2.217,5.176,5.211,5.209
			c3.34,0.035,6.68,0.023,10.02,0.002c1.738-0.012,3.176-0.695,4.236-2.105c0.768-1.02,1.012-2.195,1.014-3.439
			c0-5.779,0-11.559,0-17.338c0-0.191,0-0.383,0-0.596c-1.004,0.34-1.045,0.391-1.045,1.281c0,1.234,0,2.467,0,3.711
			c-0.715,0-1.359,0-2.037,0c0-1.725-0.035-3.402,0.029-5.076c0.012-0.324,0.336-0.721,0.627-0.932
			c0.643-0.469,1.359-0.838,2.037-1.258c0.145-0.09,0.355-0.23,0.361-0.355c0.033-0.762,0.018-1.527,0.018-2.393
			c-1.5,0.902-2.881,1.74-4.273,2.561c-0.252,0.148-0.545,0.314-0.824,0.32c-1.598,0.035-3.197,0.029-4.797,0.014
			c-0.117,0-0.326-0.182-0.332-0.289C20.506,34.56,20.525,34.003,20.525,33.367z M47.178,37.517
			c-0.016,0.109-0.033,0.184-0.033,0.258c-0.002,5.998-0.039,12,0.014,17.998c0.027,3.049,2.189,5.191,5.186,5.23
			c3.357,0.043,6.719,0.039,10.078,0c2.969-0.033,5.186-2.191,5.191-5.158c0.006-3.295-0.033-6.598-0.246-9.887
			c-0.219-3.346-1.156-6.557-2.422-9.662c-2.17-5.316-5.754-9.76-8.965-14.426c-1.107-1.607-3.318-2.168-5.176-1.613
			c-2.02,0.605-3.436,2.213-3.57,4.268c-0.115,1.752-0.078,3.516-0.076,5.273c0,0.182,0.193,0.424,0.365,0.531
			c0.945,0.598,1.959,1.096,2.857,1.754c1.422,1.043,2.947,1.496,4.701,1.297c0.742-0.084,1.502-0.014,2.275-0.014
			c0,0.719,0,1.348,0,2.002c-0.131,0.02-0.227,0.045-0.32,0.045c-1.521,0.002-3.041,0.021-4.561-0.012
			c-0.34-0.008-0.707-0.143-1.006-0.316c-1.281-0.736-2.541-1.512-3.811-2.27c-0.143-0.086-0.299-0.15-0.52-0.26
			c0,0.725,0.018,1.361-0.006,1.996c-0.012,0.34,0.092,0.549,0.396,0.719c0.682,0.379,1.334,0.805,2.01,1.193
			c0.482,0.277,0.699,0.67,0.693,1.229c-0.016,1.34-0.004,2.68-0.004,4.02c0,0.271,0,0.543,0,0.824c-0.719,0-1.35,0-2.045,0
			c0-1.207-0.059-2.387,0.02-3.555C48.26,38.187,47.992,37.734,47.178,37.517z M38.99,3.664c-0.979,0-1.957-0.012-2.936,0.004
			c-0.795,0.014-1.172,0.398-1.182,1.191c-0.008,0.719-0.023,1.439,0.02,2.156c0.131,2.146,1.979,3.855,4.096,3.824
			c2.131-0.033,3.906-1.699,4.037-3.82c0.043-0.697,0.025-1.398,0.02-2.098c-0.006-0.865-0.377-1.244-1.238-1.254
			C40.869,3.656,39.93,3.664,38.99,3.664z M45.094,33.802c0-0.754-0.021-1.391,0.008-2.021c0.016-0.365-0.1-0.58-0.42-0.764
			c-0.973-0.555-1.916-1.162-2.889-1.713c-0.568-0.322-0.822-0.754-0.799-1.412c0.035-0.891,0.01-1.783,0.01-2.684
			c-1.404,0-2.73,0-4.09,0c0,0.945-0.018,1.846,0.008,2.742c0.018,0.609-0.219,1.018-0.746,1.318
			c-1.006,0.576-1.994,1.184-2.98,1.791c-0.143,0.086-0.344,0.232-0.348,0.359c-0.033,0.762-0.018,1.523-0.018,2.379
			c1.828-1.096,3.551-2.104,5.244-3.16c0.625-0.387,1.145-0.389,1.77,0C41.537,31.695,43.26,32.703,45.094,33.802z M40.979,14.912
			c0-0.82,0-1.574,0-2.387c-1.355,0.457-2.689,0.445-4.021,0.012c0,0.826,0,1.594,0,2.375
			C38.309,14.912,39.619,14.912,40.979,14.912z M36.941,18.98c1.381,0,2.707,0,4.033,0c0-0.678,0-1.311,0-1.967
			c-1.357,0-2.684,0-4.033,0C36.941,17.677,36.941,18.31,36.941,18.98z M40.977,21.111c-1.379,0-2.705,0-4.031,0
			c0,0.678,0,1.309,0,1.969c1.354,0,2.678,0,4.031,0C40.977,22.416,40.977,21.785,40.977,21.111z"/>
		<path fill-rule="evenodd" clip-rule="evenodd" fill="#FFFFFF" d="M20.525,33.367c0,0.637-0.02,1.193,0.016,1.746
			c0.006,0.107,0.215,0.289,0.332,0.289c1.6,0.016,3.199,0.021,4.797-0.014c0.279-0.006,0.572-0.172,0.824-0.32
			c1.393-0.82,2.773-1.658,4.273-2.561c0,0.865,0.016,1.631-0.018,2.393c-0.006,0.125-0.217,0.266-0.361,0.355
			c-0.678,0.42-1.395,0.789-2.037,1.258c-0.291,0.211-0.615,0.607-0.627,0.932c-0.064,1.674-0.029,3.352-0.029,5.076
			c0.678,0,1.322,0,2.037,0c0-1.244,0-2.477,0-3.711c0-0.891,0.041-0.941,1.045-1.281c0,0.213,0,0.404,0,0.596
			c0,5.779,0,11.559,0,17.338c-0.002,1.244-0.246,2.42-1.014,3.439c-1.061,1.41-2.498,2.094-4.236,2.105
			c-3.34,0.021-6.68,0.033-10.02-0.002c-2.994-0.033-5.189-2.217-5.211-5.209c-0.02-2.877-0.053-5.764,0.125-8.635
			c0.285-4.654,1.555-9.074,3.637-13.254c1.646-3.307,3.887-6.234,5.936-9.285c0.635-0.945,1.25-1.914,1.98-2.781
			c1.334-1.586,3.088-2.123,5.072-1.588c2.086,0.564,3.412,1.98,3.629,4.143c0.18,1.803,0.086,3.633,0.086,5.451
			c0,0.152-0.16,0.361-0.303,0.447c-1.604,0.98-3.213,1.947-4.834,2.896c-0.209,0.121-0.488,0.164-0.736,0.168
			c-1.221,0.016-2.439,0.008-3.66,0.008C21.016,33.367,20.801,33.367,20.525,33.367z M25.641,42.541c0-1.389,0.01-2.703-0.004-4.018
			c-0.008-0.537-0.279-0.988-0.826-1.006c-1.408-0.053-2.816-0.018-4.234-0.018c0,0.693,0,1.336,0,2.027c1.023,0,1.994,0,3.035,0
			c0,1.033,0,2.02,0,3.014C24.311,42.541,24.943,42.541,25.641,42.541z"/>
		<path fill-rule="evenodd" clip-rule="evenodd" fill="#F26322" d="M47.178,37.517c0.814,0.217,1.082,0.67,1.027,1.465
			c-0.078,1.168-0.02,2.348-0.02,3.555c0.695,0,1.326,0,2.045,0c0-0.281,0-0.553,0-0.824c0-1.34-0.012-2.68,0.004-4.02
			c0.006-0.559-0.211-0.951-0.693-1.229c-0.676-0.389-1.328-0.814-2.01-1.193c-0.305-0.17-0.408-0.379-0.396-0.719
			c0.023-0.635,0.006-1.271,0.006-1.996c0.221,0.109,0.377,0.174,0.52,0.26c1.27,0.758,2.529,1.533,3.811,2.27
			c0.299,0.174,0.666,0.309,1.006,0.316c1.52,0.033,3.039,0.014,4.561,0.012c0.094,0,0.189-0.025,0.32-0.045
			c0-0.654,0-1.283,0-2.002c-0.773,0-1.533-0.07-2.275,0.014c-1.754,0.199-3.279-0.254-4.701-1.297
			c-0.898-0.658-1.912-1.156-2.857-1.754c-0.172-0.107-0.365-0.35-0.365-0.531c-0.002-1.758-0.039-3.521,0.076-5.273
			c0.135-2.055,1.551-3.662,3.57-4.268c1.857-0.555,4.068,0.006,5.176,1.613c3.211,4.666,6.795,9.109,8.965,14.426
			c1.266,3.105,2.203,6.316,2.422,9.662c0.213,3.289,0.252,6.592,0.246,9.887c-0.006,2.967-2.223,5.125-5.191,5.158
			c-3.359,0.039-6.721,0.043-10.078,0c-2.996-0.039-5.158-2.182-5.186-5.23c-0.053-5.998-0.016-12-0.014-17.998
			C47.145,37.701,47.162,37.626,47.178,37.517z M54.305,39.488c1.072,0,2.057,0,3.055,0c0-0.701,0-1.33,0-2.02
			c-0.771,0-1.506,0.006-2.24-0.002c-2.965-0.023-2.877-0.152-2.846,2.814c0.008,0.752,0.002,1.502,0.002,2.258
			c0.715,0,1.346,0,2.029,0C54.305,41.542,54.305,40.574,54.305,39.488z"/>
		<path fill-rule="evenodd" clip-rule="evenodd" fill="#FFFFFF" d="M38.99,3.664c0.939,0,1.879-0.008,2.816,0.004
			c0.861,0.01,1.232,0.389,1.238,1.254c0.006,0.699,0.023,1.4-0.02,2.098c-0.131,2.121-1.906,3.787-4.037,3.82
			c-2.117,0.031-3.965-1.678-4.096-3.824c-0.043-0.717-0.027-1.438-0.02-2.156c0.01-0.793,0.387-1.178,1.182-1.191
			C37.033,3.652,38.012,3.664,38.99,3.664z"/>
		<path fill-rule="evenodd" clip-rule="evenodd" fill="#FFFFFF" d="M45.094,33.802c-1.834-1.1-3.557-2.107-5.25-3.164
			c-0.625-0.389-1.145-0.387-1.77,0c-1.693,1.057-3.416,2.064-5.244,3.16c0-0.855-0.016-1.617,0.018-2.379
			c0.004-0.127,0.205-0.273,0.348-0.359c0.986-0.607,1.975-1.215,2.98-1.791c0.527-0.301,0.764-0.709,0.746-1.318
			c-0.025-0.896-0.008-1.797-0.008-2.742c1.359,0,2.686,0,4.09,0c0,0.9,0.025,1.793-0.01,2.684c-0.023,0.658,0.23,1.09,0.799,1.412
			c0.973,0.551,1.916,1.158,2.889,1.713c0.32,0.184,0.436,0.398,0.42,0.764C45.072,32.412,45.094,33.048,45.094,33.802z"/>
		<path fill-rule="evenodd" clip-rule="evenodd" fill="#FFFFFF" d="M40.979,14.912c-1.359,0-2.67,0-4.021,0c0-0.781,0-1.549,0-2.375
			c1.332,0.434,2.666,0.445,4.021-0.012C40.979,13.337,40.979,14.091,40.979,14.912z"/>
		<path fill-rule="evenodd" clip-rule="evenodd" fill="#FFFFFF" d="M36.941,18.98c0-0.67,0-1.303,0-1.967c1.35,0,2.676,0,4.033,0
			c0,0.656,0,1.289,0,1.967C39.648,18.98,38.322,18.98,36.941,18.98z"/>
		<path fill-rule="evenodd" clip-rule="evenodd" fill="#FFFFFF" d="M40.977,21.111c0,0.674,0,1.305,0,1.969
			c-1.354,0-2.678,0-4.031,0c0-0.66,0-1.291,0-1.969C38.271,21.111,39.598,21.111,40.977,21.111z"/>
		<path fill-rule="evenodd" clip-rule="evenodd" d="M25.641,42.541c-0.697,0-1.33,0-2.029,0c0-0.994,0-1.98,0-3.014
			c-1.041,0-2.012,0-3.035,0c0-0.691,0-1.334,0-2.027c1.418,0,2.826-0.035,4.234,0.018c0.547,0.018,0.818,0.469,0.826,1.006
			C25.65,39.837,25.641,41.152,25.641,42.541z"/>
		<path fill-rule="evenodd" clip-rule="evenodd" d="M54.305,39.488c0,1.086,0,2.055,0,3.051c-0.684,0-1.314,0-2.029,0
			c0-0.756,0.006-1.506-0.002-2.258c-0.031-2.967-0.119-2.838,2.846-2.814c0.734,0.008,1.469,0.002,2.24,0.002
			c0,0.689,0,1.318,0,2.02C56.361,39.488,55.377,39.488,54.305,39.488z"/>
	</g>
	<g>
		
			<text transform="matrix(1 0 0 1 6.4146 78.3667)" stroke="#020303" stroke-width="0.5" stroke-miterlimit="10" font-family="'Montserrat-UltraLight'" font-size="10">SPIROMETRY</text>
	</g>
</g>
</svg>
