<?xml version="1.0" encoding="utf-8"?>
<!-- Generator: Adobe Illustrator 16.0.0, SVG Export Plug-In . SVG Version: 6.00 Build 0)  -->
<!DOCTYPE svg PUBLIC "-//W3C//DTD SVG 1.1//EN" "http://www.w3.org/Graphics/SVG/1.1/DTD/svg11.dtd">
<svg version="1.1" id="Layer_1" xmlns="http://www.w3.org/2000/svg" xmlns:xlink="http://www.w3.org/1999/xlink" x="0px" y="0px"
	 width="65.621px" height="43.856px" viewBox="0 0 65.621 43.856" enable-background="new 0 0 65.621 43.856" xml:space="preserve">
<rect x="-11" y="-6.333" fill="#FFFFFF" width="100.667" height="90.667"/>
<g>
	<g>
		<path fill-rule="evenodd" clip-rule="evenodd" d="M0,23.592c0.3-0.9,0.947-1.211,1.866-1.205c3.78,0.02,7.561,0.006,11.341,0.01
			c1.239,0,1.633,0.314,1.933,1.502c0.464,1.84,0.927,3.68,1.393,5.52c0.035,0.143,0.089,0.279,0.171,0.531
			c0.155-0.285,0.264-0.48,0.367-0.678c1.362-2.586,2.726-5.17,4.086-7.756c0.268-0.51,0.589-0.945,1.219-1.018
			c0.848-0.098,1.428,0.334,1.701,1.299c0.655,2.318,1.301,4.639,1.95,6.959c0.473,1.684,0.944,3.367,1.42,5.049
			c0.05,0.176,0.121,0.348,0.303,0.52c0.103-0.875,0.212-1.748,0.309-2.625c0.637-5.791,1.272-11.584,1.903-17.375
			c0.447-4.096,0.887-8.191,1.33-12.287c0.028-0.254,0.06-0.51,0.106-0.762C31.539,0.51,32.082,0.014,32.779,0
			c0.715-0.012,1.333,0.43,1.464,1.178c0.241,1.387,0.421,2.783,0.615,4.178c0.758,5.432,1.51,10.863,2.265,16.295
			c0.062,0.441,0.128,0.883,0.199,1.379c1.053,0,2.074-0.002,3.097,0.002c1.559,0.006,3.118-0.01,4.676,0.037
			c0.721,0.02,1.215,0.527,1.311,1.18c0.099,0.664-0.191,1.279-0.79,1.527c-0.286,0.117-0.621,0.158-0.935,0.16
			c-2.777,0.012-5.554,0.012-8.33,0.004c-1.155-0.004-1.627-0.391-1.795-1.553c-0.468-3.23-0.906-6.467-1.357-9.699
			c-0.044-0.314-0.099-0.625-0.235-0.934c-0.219,1.982-0.439,3.967-0.657,5.949c-0.499,4.541-0.997,9.08-1.493,13.621
			c-0.318,2.906-0.632,5.814-0.948,8.721c-0.018,0.17-0.029,0.342-0.063,0.508c-0.163,0.787-0.663,1.26-1.368,1.301
			c-0.709,0.041-1.274-0.357-1.504-1.137c-0.411-1.391-0.787-2.791-1.179-4.186c-1.113-3.963-2.227-7.924-3.341-11.885
			c-0.057-0.201-0.13-0.395-0.236-0.717c-0.165,0.285-0.281,0.471-0.383,0.664c-1.392,2.643-2.783,5.285-4.169,7.93
			c-0.319,0.609-0.742,1.041-1.49,1.006c-0.715-0.031-1.188-0.434-1.399-1.268c-0.688-2.707-1.391-5.41-2.019-8.133
			c-0.16-0.691-0.439-0.852-1.107-0.844c-3.246,0.035-6.493,0.002-9.739,0.025C0.947,25.316,0.3,25.006,0,24.105
			C0,23.934,0,23.764,0,23.592z"/>
		<path fill-rule="evenodd" clip-rule="evenodd" fill="#F2C617" d="M61.718,25.939c-0.77,0.002-1.539,0.018-2.307-0.002
			c-0.99-0.027-1.609-0.602-1.607-1.453c0.002-0.85,0.625-1.43,1.615-1.441c1.537-0.02,3.076-0.021,4.613,0.002
			c0.947,0.014,1.566,0.596,1.588,1.416c0.021,0.83-0.625,1.445-1.596,1.475C63.257,25.959,62.487,25.939,61.718,25.939z"/>
		<path fill-rule="evenodd" clip-rule="evenodd" fill="#F2C617" d="M51.913,25.939c-0.748-0.002-1.496,0.021-2.242-0.006
			c-0.94-0.035-1.55-0.625-1.548-1.447c0.003-0.824,0.61-1.422,1.553-1.439c1.472-0.027,2.946-0.027,4.419,0
			c0.938,0.016,1.545,0.619,1.545,1.443s-0.609,1.41-1.549,1.443C53.366,25.961,52.64,25.939,51.913,25.939z"/>
	</g>
	<g>
		
			<text transform="matrix(1 0 0 1 16.895 67.9561)" stroke="#020303" stroke-width="0.5" stroke-miterlimit="10" font-family="'Montserrat-UltraLight'" font-size="10">PULSE</text>
	</g>
</g>
</svg>
