<?xml version="1.0" encoding="utf-8"?>
<!-- Generator: Adobe Illustrator 16.0.0, SVG Export Plug-In . SVG Version: 6.00 Build 0)  -->
<!DOCTYPE svg PUBLIC "-//W3C//DTD SVG 1.1//EN" "http://www.w3.org/Graphics/SVG/1.1/DTD/svg11.dtd">
<svg version="1.1" id="Layer_1" xmlns="http://www.w3.org/2000/svg" xmlns:xlink="http://www.w3.org/1999/xlink" x="0px" y="0px"
	 width="37.25px" height="12.167px" viewBox="0 0 37.25 12.167" enable-background="new 0 0 37.25 12.167" xml:space="preserve">
<g>
	<path d="M6.874,2.03C6.51,1.722,6.197,1.507,5.936,1.386C5.675,1.274,5.343,1.208,4.942,1.19c-0.177-0.009-0.434,0-0.77,0.028
		C3.845,1.246,3.621,1.279,3.5,1.316C3.015,1.503,2.587,1.904,2.219,2.52C1.85,3.136,1.591,3.869,1.442,4.718
		c-0.149,0.85-0.159,1.638-0.028,2.366c0.13,0.728,0.369,1.27,0.714,1.624C2.389,8.969,2.723,9.193,3.129,9.38
		C3.535,9.567,3.962,9.688,4.41,9.744C5.362,9.856,6.066,9.641,6.524,9.1C6.832,8.736,7.03,8.333,7.119,7.889
		C7.208,7.446,7.252,6.86,7.252,6.132c0-0.046,0.005-0.107,0.014-0.182H7.168c-0.327-0.009-0.77-0.004-1.33,0.014
		C5.306,5.983,4.541,6.025,3.542,6.09C3.365,6.099,3.213,6.048,3.087,5.936C2.961,5.824,2.893,5.682,2.884,5.509
		C2.875,5.336,2.926,5.187,3.038,5.061C3.15,4.935,3.29,4.867,3.458,4.858c1.195-0.075,1.974-0.117,2.338-0.126
		c0.588-0.019,1.055-0.023,1.4-0.014c0.224,0,0.401,0.009,0.532,0.028C7.821,4.755,7.9,4.77,7.966,4.788
		C8.115,4.825,8.237,4.891,8.33,4.984c0.214,0.224,0.285,0.518,0.21,0.882c-0.009,0.056-0.019,0.103-0.028,0.14
		c-0.01,0.038-0.017,0.061-0.021,0.07c-0.005,0.01-0.007,0.019-0.007,0.028v0.028c0,0.392-0.007,0.712-0.021,0.959
		c-0.014,0.248-0.051,0.551-0.112,0.91C8.29,8.36,8.188,8.694,8.043,9.002C7.898,9.31,7.709,9.604,7.476,9.884
		c-0.392,0.458-0.873,0.77-1.442,0.938c-0.56,0.168-1.153,0.215-1.778,0.14c-0.579-0.065-1.129-0.224-1.652-0.476
		c-0.532-0.243-0.98-0.546-1.344-0.91C0.896,9.212,0.614,8.741,0.413,8.162S0.107,6.988,0.098,6.377
		C0.088,5.766,0.13,5.143,0.224,4.508c0.112-0.635,0.282-1.232,0.511-1.792s0.548-1.078,0.959-1.554
		C2.104,0.686,2.566,0.354,3.08,0.168c0.214-0.084,0.529-0.142,0.945-0.175C4.44-0.04,4.765-0.051,4.998-0.042
		c0.56,0.028,1.034,0.128,1.421,0.301c0.387,0.173,0.8,0.446,1.239,0.819c0.13,0.112,0.203,0.254,0.217,0.427
		c0.014,0.173-0.033,0.322-0.14,0.448c-0.107,0.126-0.247,0.196-0.42,0.21C7.142,2.177,6.995,2.133,6.874,2.03z"/>
	<path d="M15.302,0.882c2.09,1.083,3.276,2.632,3.556,4.648c0.103,0.784,0.047,1.557-0.168,2.317
		c-0.215,0.761-0.551,1.428-1.008,2.002c-0.458,0.574-1.043,1.031-1.757,1.372c-0.714,0.341-1.491,0.497-2.331,0.469
		c-0.019,0-0.089-0.002-0.21-0.007c-0.122-0.005-0.203-0.007-0.245-0.007s-0.124-0.005-0.245-0.014l-0.28-0.028
		c-0.056,0-0.143-0.007-0.259-0.021c-0.117-0.014-0.21-0.028-0.28-0.042s-0.159-0.033-0.266-0.056
		c-0.107-0.023-0.203-0.049-0.287-0.077c-0.084-0.028-0.17-0.059-0.259-0.091c-0.089-0.033-0.175-0.072-0.259-0.119
		c-0.597-0.308-1.078-0.726-1.442-1.253C9.198,9.448,8.959,8.876,8.848,8.26c-0.112-0.616-0.135-1.246-0.07-1.89
		c0.056-0.635,0.196-1.26,0.42-1.876c0.196-0.55,0.453-1.064,0.77-1.54c0.317-0.476,0.684-0.903,1.099-1.281
		c0.416-0.378,0.892-0.667,1.428-0.868c0.537-0.2,1.094-0.277,1.673-0.231c0.159-0.065,0.317-0.061,0.476,0.014l0.294,0.126
		l0.098,0.028C15.138,0.77,15.227,0.817,15.302,0.882z M17.667,6.51c0.009-0.271-0.005-0.541-0.042-0.812
		c-0.224-1.661-1.26-2.935-3.108-3.822c-0.877-0.196-1.694-0.005-2.45,0.574c-0.756,0.579-1.33,1.4-1.722,2.464
		c-0.261,0.719-0.392,1.423-0.392,2.114c0,0.691,0.138,1.314,0.413,1.869c0.275,0.555,0.674,0.968,1.197,1.239
		c0.345,0.178,0.985,0.285,1.918,0.322c-0.308-0.299-0.509-0.639-0.602-1.022c-0.178-0.681-0.01-1.339,0.504-1.974
		c0.289-0.354,0.653-0.642,1.092-0.861c0.438-0.219,0.931-0.348,1.477-0.385C16.499,6.179,17.07,6.277,17.667,6.51z"/>
	<path d="M25.634,0.882c2.09,1.083,3.276,2.632,3.556,4.648c0.103,0.784,0.047,1.557-0.168,2.317
		c-0.215,0.761-0.551,1.428-1.008,2.002c-0.458,0.574-1.043,1.031-1.757,1.372c-0.714,0.341-1.491,0.497-2.331,0.469
		c-0.019,0-0.089-0.002-0.21-0.007c-0.122-0.005-0.203-0.007-0.245-0.007s-0.124-0.005-0.245-0.014l-0.28-0.028
		c-0.056,0-0.143-0.007-0.259-0.021c-0.117-0.014-0.21-0.028-0.28-0.042s-0.159-0.033-0.266-0.056
		c-0.107-0.023-0.203-0.049-0.287-0.077c-0.084-0.028-0.17-0.059-0.259-0.091c-0.089-0.033-0.175-0.072-0.259-0.119
		c-0.597-0.308-1.078-0.726-1.442-1.253C19.53,9.448,19.292,8.876,19.18,8.26c-0.112-0.616-0.135-1.246-0.07-1.89
		c0.056-0.635,0.196-1.26,0.42-1.876c0.196-0.55,0.453-1.064,0.77-1.54c0.317-0.476,0.684-0.903,1.099-1.281
		c0.416-0.378,0.892-0.667,1.428-0.868c0.537-0.2,1.094-0.277,1.673-0.231c0.159-0.065,0.317-0.061,0.476,0.014l0.294,0.126
		l0.098,0.028C25.47,0.77,25.559,0.817,25.634,0.882z M28,6.51c0.009-0.271-0.005-0.541-0.042-0.812
		c-0.224-1.661-1.26-2.935-3.108-3.822C23.972,1.68,23.156,1.871,22.4,2.45c-0.756,0.579-1.33,1.4-1.722,2.464
		c-0.261,0.719-0.392,1.423-0.392,2.114c0,0.691,0.138,1.314,0.413,1.869c0.275,0.555,0.674,0.968,1.197,1.239
		c0.345,0.178,0.985,0.285,1.918,0.322c-0.308-0.299-0.509-0.639-0.602-1.022c-0.178-0.681-0.01-1.339,0.504-1.974
		c0.289-0.354,0.653-0.642,1.092-0.861c0.438-0.219,0.931-0.348,1.477-0.385C26.831,6.179,27.402,6.277,28,6.51z"/>
	<path d="M30.926,0.028c1.157-0.233,2.216-0.107,3.178,0.378c0.952,0.485,1.717,1.204,2.296,2.156
		c0.364,0.606,0.616,1.25,0.756,1.932c0.149,0.682,0.172,1.391,0.07,2.128s-0.341,1.423-0.714,2.058
		c-0.84,1.428-2.543,2.222-5.11,2.38c-0.122,0.009-0.233-0.014-0.336-0.07c-0.103,0.065-0.215,0.098-0.336,0.098
		c-0.168,0-0.313-0.061-0.434-0.182c-0.122-0.121-0.182-0.266-0.182-0.434c0-0.784,0.016-1.869,0.049-3.255
		c0.033-1.386,0.054-2.471,0.063-3.255s-0.009-1.867-0.056-3.248c-0.01-0.168,0.044-0.315,0.161-0.441s0.259-0.194,0.427-0.203H30.8
		C30.837,0.051,30.879,0.037,30.926,0.028z M36.05,5.39c-0.065-0.784-0.299-1.517-0.7-2.198c-0.429-0.709-0.987-1.248-1.673-1.617
		c-0.686-0.369-1.44-0.497-2.261-0.385c0.028,1.26,0.04,2.219,0.035,2.877c-0.005,0.658-0.021,1.62-0.049,2.884
		c-0.028,1.265-0.047,2.224-0.056,2.877c0.933-0.056,1.712-0.201,2.338-0.434c-0.364-1.083-0.299-2.016,0.196-2.8
		C34.346,5.857,35.07,5.455,36.05,5.39z"/>
</g>
</svg>
