<?xml version="1.0" standalone="no"?>
<!DOCTYPE svg PUBLIC "-//W3C//DTD SVG 20010904//EN"
 "http://www.w3.org/TR/2001/REC-SVG-20010904/DTD/svg10.dtd">
<svg version="1.0" xmlns="http://www.w3.org/2000/svg"
 width="128.000000pt" height="128.000000pt" viewBox="0 0 128.000000 128.000000"
 preserveAspectRatio="xMidYMid meet">

<g transform="translate(0.000000,128.000000) scale(0.100000,-0.100000)"
fill="#000000" stroke="none">
<path d="M540 1273 c-60 -10 -128 -34 -133 -47 -12 -31 18 -38 80 -20 83 25
238 23 323 -5 77 -24 171 -79 220 -127 l35 -34 -62 0 c-46 0 -62 -4 -67 -16
-11 -29 4 -34 104 -34 114 0 110 -4 110 105 0 86 -6 105 -30 105 -21 0 -30
-19 -30 -65 l0 -34 -62 47 c-77 57 -165 98 -255 117 -64 14 -177 18 -233 8z"/>
<path d="M136 1184 c-10 -26 3 -34 55 -34 27 0 49 -1 49 -3 0 -1 -29 -33 -65
-70 -77 -80 -138 -197 -161 -307 -19 -88 -14 -226 10 -306 16 -53 33 -68 56
-54 11 7 10 20 -5 72 -12 41 -18 96 -18 158 0 162 49 285 163 403 l69 72 1
-47 c0 -25 3 -53 6 -62 8 -21 40 -21 48 0 11 29 7 169 -6 182 -8 8 -46 12
-104 12 -75 0 -93 -3 -98 -16z"/>
<path d="M564 1151 c-83 -51 -101 -123 -58 -228 4 -10 -24 -13 -121 -13 -164
0 -195 -14 -195 -89 0 -16 10 -37 23 -49 20 -19 35 -22 114 -22 50 0 98 -3
107 -6 14 -5 16 -40 16 -286 0 -292 5 -326 45 -342 33 -12 72 -6 93 17 20 21
22 35 24 167 3 133 5 145 22 148 10 2 22 -2 27 -10 5 -7 9 -74 9 -149 0 -129
1 -137 23 -157 23 -22 60 -28 92 -16 40 16 45 50 45 342 0 246 2 281 16 286 9
3 63 6 120 6 98 0 107 2 129 25 32 31 32 66 1 102 l-24 28 -152 3 c-111 3
-150 7 -146 15 20 48 28 90 22 121 -8 41 -46 90 -87 111 -39 21 -108 19 -145
-4z m127 -47 c93 -48 55 -194 -50 -194 -104 0 -146 137 -57 191 38 23 67 24
107 3z m372 -266 c11 -33 -5 -38 -119 -38 -105 0 -115 -2 -141 -24 l-28 -24
-5 -294 c-5 -285 -6 -293 -25 -293 -19 0 -20 8 -25 147 -4 130 -7 150 -25 167
-34 33 -68 36 -101 8 l-29 -25 -5 -149 c-5 -140 -6 -148 -25 -148 -19 0 -20 8
-25 293 l-5 294 -28 24 c-26 22 -37 24 -127 24 -99 0 -117 6 -106 35 5 13 65
15 410 15 314 0 405 -3 409 -12z"/>
<path d="M1200 870 c-11 -7 -10 -20 5 -72 26 -89 24 -241 -4 -328 -28 -90 -83
-178 -152 -246 l-59 -58 0 49 c0 58 -10 78 -36 73 -17 -3 -19 -14 -22 -92 -2
-56 1 -93 9 -102 15 -19 195 -20 202 -1 9 27 -6 37 -55 37 l-50 0 65 70 c78
84 141 204 163 310 19 88 14 227 -10 306 -16 53 -33 68 -56 54z"/>
<path d="M136 274 c-8 -20 -8 -158 0 -178 8 -21 40 -21 48 0 3 9 6 31 6 51 l0
35 52 -41 c71 -57 179 -108 268 -127 162 -34 419 13 355 66 -10 8 -28 7 -72
-6 -83 -25 -238 -23 -323 5 -77 24 -171 79 -220 127 l-35 34 62 0 c61 0 76 9
65 38 -3 8 -33 12 -102 12 -80 0 -99 -3 -104 -16z"/>
</g>
</svg>
