<?xml version="1.0" standalone="no"?>
<!DOCTYPE svg PUBLIC "-//W3C//DTD SVG 20010904//EN"
 "http://www.w3.org/TR/2001/REC-SVG-20010904/DTD/svg10.dtd">
<svg version="1.0" xmlns="http://www.w3.org/2000/svg"
 width="512.000000pt" height="512.000000pt" viewBox="0 0 512.000000 512.000000"
 preserveAspectRatio="xMidYMid meet">

<g transform="translate(0.000000,512.000000) scale(0.100000,-0.100000)"
fill="#000000" stroke="none">
<path d="M1205 4790 c-134 -21 -319 -94 -434 -173 -67 -45 -206 -182 -256
-252 -224 -313 -256 -724 -83 -1069 53 -107 88 -156 176 -248 324 -339 805
-423 1222 -214 99 50 151 88 242 174 255 244 369 576 313 917 -66 410 -372
741 -780 846 -92 23 -305 33 -400 19z m310 -165 c336 -59 606 -310 698 -650
31 -114 31 -316 0 -430 -44 -162 -121 -297 -237 -410 -345 -341 -900 -337
-1241 9 -340 344 -338 894 5 1236 206 206 487 295 775 245z"/>
<path d="M906 4224 c-70 -22 -149 -103 -170 -174 -23 -77 -23 -503 0 -580 23
-76 100 -153 179 -176 174 -50 344 63 362 241 5 48 3 56 -20 79 -54 54 -122
24 -138 -59 -14 -73 -54 -110 -119 -110 -43 0 -54 5 -82 33 l-33 32 0 250 0
250 33 32 c28 28 39 33 82 33 65 0 105 -37 119 -110 15 -82 84 -113 136 -60
50 50 22 169 -59 251 -80 79 -178 102 -290 68z"/>
<path d="M1546 3904 c-70 -22 -149 -103 -170 -174 -20 -69 -20 -191 0 -260 23
-76 100 -153 179 -176 71 -20 145 -15 204 16 l42 21 30 -22 c17 -12 50 -24 74
-27 37 -4 47 -1 69 21 34 34 34 79 1 112 -13 14 -31 25 -40 25 -13 0 -15 28
-15 215 0 216 0 216 -25 240 -28 29 -65 32 -100 9 -21 -14 -28 -14 -70 0 -56
20 -115 19 -179 0z m178 -183 c30 -30 31 -34 31 -121 0 -88 -1 -90 -33 -122
-28 -28 -39 -33 -82 -33 -43 0 -54 5 -82 33 -32 32 -33 34 -33 121 0 81 2 92
25 116 33 36 57 46 104 41 27 -3 49 -14 70 -35z"/>
<path d="M3756 4784 c-350 -63 -639 -356 -701 -709 -104 -600 417 -1125 1013
-1021 479 84 801 540 718 1015 -85 484 -544 803 -1030 715z m379 -178 c113
-36 198 -89 290 -181 91 -91 144 -175 182 -290 23 -71 26 -96 26 -215 0 -119
-3 -144 -26 -215 -38 -115 -91 -199 -182 -290 -91 -91 -175 -144 -290 -182
-71 -23 -96 -26 -215 -26 -119 0 -144 3 -215 26 -114 38 -198 90 -290 182 -91
91 -144 175 -182 290 -23 71 -26 96 -26 215 0 119 3 144 26 215 38 114 90 198
182 291 109 110 234 177 380 204 88 16 250 4 340 -24z"/>
<path d="M3465 4295 c-16 -15 -25 -36 -25 -55 0 -19 9 -40 25 -55 23 -24 31
-25 135 -25 l110 0 -135 -270 c-74 -148 -135 -281 -135 -295 0 -14 11 -37 25
-50 24 -25 26 -25 215 -25 189 0 191 0 215 25 16 15 25 36 25 55 0 19 -9 40
-25 55 -23 24 -31 25 -135 25 l-110 0 135 270 c74 148 135 281 135 295 0 14
-11 37 -25 50 -24 25 -26 25 -215 25 -189 0 -191 0 -215 -25z"/>
<path d="M4026 4056 l-26 -25 0 -231 0 -231 25 -24 c15 -16 36 -25 55 -25 19
0 40 9 55 25 24 23 25 28 25 175 0 147 1 152 25 175 15 16 36 25 55 25 19 0
40 -9 55 -25 24 -23 25 -28 25 -175 0 -147 1 -152 25 -175 32 -33 78 -33 110
0 24 23 25 28 25 176 0 186 -8 218 -75 285 -59 59 -118 81 -193 70 -56 -9 -75
-9 -124 0 -31 5 -41 2 -62 -20z"/>
<path d="M2785 3029 c-161 -21 -352 -85 -497 -168 -617 -353 -858 -1112 -558
-1758 126 -271 353 -504 626 -641 84 -42 242 -96 349 -118 121 -25 383 -26
505 -1 422 84 777 353 968 733 42 84 96 242 118 349 25 122 26 383 1 507 -89
449 -388 818 -806 999 -214 92 -470 127 -706 98z m435 -178 c352 -80 651 -315
814 -639 84 -168 121 -329 121 -532 0 -157 -12 -236 -56 -372 -58 -179 -154
-335 -293 -474 -171 -170 -371 -280 -606 -330 -106 -23 -352 -26 -455 -5 -494
98 -868 472 -966 966 -21 103 -18 349 5 455 78 363 314 668 644 834 93 47 225
90 322 106 41 6 82 13 90 15 42 11 302 -6 380 -24z"/>
<path d="M2105 2295 l-25 -24 0 -511 0 -511 25 -24 c29 -30 74 -32 106 -6 l24
19 5 373 5 374 128 -180 c71 -99 139 -186 153 -193 56 -29 74 -14 216 186
l133 187 5 -374 5 -373 24 -19 c32 -26 77 -24 106 6 l25 24 0 511 0 511 -25
24 c-25 26 -63 32 -93 16 -9 -5 -93 -118 -187 -250 -93 -132 -172 -240 -175
-240 -3 0 -81 108 -175 240 -93 132 -178 245 -187 250 -30 16 -68 10 -93 -16z"/>
<path d="M3386 1824 c-70 -22 -149 -103 -170 -174 -20 -69 -20 -191 0 -260 12
-39 29 -66 68 -106 64 -63 123 -84 239 -84 l79 0 -3 -85 c-4 -80 -6 -86 -37
-117 -28 -28 -39 -33 -82 -33 -65 0 -105 37 -119 110 -6 31 -18 56 -31 67 -52
42 -130 3 -130 -65 0 -115 86 -231 195 -263 137 -39 269 18 336 146 24 45 24
47 27 438 l3 392 -25 25 c-29 29 -66 32 -101 9 -21 -14 -28 -14 -70 0 -56 20
-115 19 -179 0z m178 -183 c31 -31 31 -32 34 -157 l4 -126 -86 3 c-81 4 -87 6
-118 37 -32 32 -33 34 -33 121 0 81 2 92 25 116 33 36 57 46 104 41 27 -3 49
-14 70 -35z"/>
</g>
</svg>
