<?xml version="1.0" standalone="no"?>
<!DOCTYPE svg PUBLIC "-//W3C//DTD SVG 20010904//EN"
 "http://www.w3.org/TR/2001/REC-SVG-20010904/DTD/svg10.dtd">
<svg version="1.0" xmlns="http://www.w3.org/2000/svg"
 width="512.000000pt" height="512.000000pt" viewBox="0 0 512.000000 512.000000"
 preserveAspectRatio="xMidYMid meet">

<g transform="translate(0.000000,512.000000) scale(0.100000,-0.100000)"
fill="#000000" stroke="none">
<path d="M1787 4999 c-87 -21 -163 -82 -208 -169 -23 -43 -24 -56 -27 -277
l-4 -232 26 -26 c23 -23 32 -25 121 -25 l95 0 0 -119 0 -118 -53 -6 c-76 -8
-228 -61 -316 -110 -149 -84 -322 -280 -388 -439 -62 -150 -66 -181 -71 -475
-3 -264 -3 -272 17 -292 28 -28 82 -28 107 0 17 19 19 41 22 245 l3 224 1455
0 1454 0 0 -1200 0 -1200 -1460 0 -1460 0 0 824 c0 770 -1 825 -17 845 -10 11
-32 24 -50 27 -26 5 -37 1 -57 -19 l-26 -26 0 -973 c0 -792 3 -983 14 -1024
43 -161 176 -283 340 -313 41 -8 432 -11 1255 -11 1280 0 1273 0 1371 50 92
47 175 145 210 249 20 61 20 65 18 1464 -3 1391 -3 1403 -24 1472 -77 257
-235 460 -454 583 -91 51 -251 102 -319 102 l-31 0 0 120 0 120 95 0 c89 0 98
2 121 25 l26 26 -4 232 c-3 229 -3 233 -30 282 -34 64 -90 118 -153 147 l-50
23 -755 2 c-421 1 -772 -3 -793 -8z m1543 -161 c79 -41 85 -55 88 -249 l3
-169 -861 0 -861 0 3 169 c3 194 9 208 88 249 l44 22 726 0 726 0 44 -22z
m-150 -683 l0 -115 -620 0 -620 0 0 115 0 115 620 0 620 0 0 -115z m275 -294
c249 -83 440 -264 521 -493 l13 -38 -1430 0 -1430 0 7 23 c63 205 243 397 452
482 133 54 133 54 997 52 l800 -2 70 -24z m563 -3313 c-7 -127 -55 -205 -156
-255 l-57 -28 -1240 0 -1240 0 -50 23 c-60 28 -98 62 -133 121 -21 37 -27 60
-30 133 l-4 88 1457 0 1458 0 -5 -82z"/>
<path d="M2135 2931 c-47 -12 -84 -41 -104 -80 -30 -58 -94 -347 -88 -392 8
-57 48 -103 135 -154 110 -65 122 -63 319 51 92 54 116 64 128 54 33 -27 105
-254 105 -331 l0 -37 -42 10 c-80 19 -263 12 -368 -15 l-94 -24 -56 37 c-30
21 -84 48 -120 60 -113 39 -292 28 -355 -22 -33 -26 -34 -79 -3 -108 26 -24
46 -25 112 -5 112 34 223 9 328 -76 34 -27 71 -49 83 -49 12 0 55 11 96 25
106 37 238 52 324 37 127 -21 215 -80 315 -211 21 -28 32 -33 65 -33 46 0 75
28 75 72 0 34 -67 128 -137 190 l-50 45 -6 90 c-7 103 -32 210 -77 322 -40
100 -65 137 -113 164 -65 36 -113 25 -265 -63 l-130 -76 -51 29 c-28 16 -51
35 -51 42 0 24 64 282 73 295 7 9 65 12 228 12 l219 0 163 -162 c249 -249 418
-471 532 -702 72 -145 92 -226 77 -308 -20 -109 -83 -197 -172 -243 -103 -52
-335 -112 -523 -136 -139 -17 -444 -7 -567 19 -149 32 -171 34 -245 22 -135
-21 -285 -117 -285 -182 0 -35 40 -78 73 -78 13 0 42 16 65 35 98 85 177 98
357 60 105 -23 164 -29 313 -33 248 -6 436 19 677 90 193 57 299 123 377 236
74 108 98 272 58 404 -51 171 -205 432 -382 650 -120 148 -382 406 -450 444
l-53 29 -240 2 c-132 1 -254 -2 -270 -6z"/>
</g>
</svg>
