<?xml version="1.0" standalone="no"?>
<!DOCTYPE svg PUBLIC "-//W3C//DTD SVG 20010904//EN"
 "http://www.w3.org/TR/2001/REC-SVG-20010904/DTD/svg10.dtd">
<svg version="1.0" xmlns="http://www.w3.org/2000/svg"
 width="512.000000pt" height="512.000000pt" viewBox="0 0 512.000000 512.000000"
 preserveAspectRatio="xMidYMid meet">

<g transform="translate(0.000000,512.000000) scale(0.100000,-0.100000)"
fill="#000000" stroke="none">
<path d="M2372 5107 c-14 -6 -102 -127 -206 -281 -948 -1403 -1356 -2015
-1397 -2091 -278 -522 -287 -1154 -25 -1690 239 -488 683 -849 1213 -986 894
-230 1830 240 2182 1096 105 254 146 490 138 780 l-5 179 58 63 c242 259 304
647 155 970 -39 84 -716 1094 -753 1123 -28 23 -59 25 -98 8 -17 -8 -73 -83
-166 -221 -77 -114 -141 -207 -143 -205 -1 2 -186 275 -409 608 -224 333 -420
617 -437 633 -31 29 -67 34 -107 14z m442 -855 c212 -316 386 -578 386 -584 0
-5 -65 -105 -144 -221 -191 -282 -229 -362 -257 -532 -16 -101 -6 -278 21
-373 109 -386 457 -652 854 -652 134 0 249 25 389 85 16 7 17 -2 17 -103 0
-797 -557 -1480 -1335 -1637 -280 -57 -582 -39 -852 51 -43 14 -141 57 -218
95 -748 368 -1103 1240 -828 2033 57 164 135 300 404 697 140 206 459 679 709
1051 250 372 458 673 461 670 4 -4 181 -265 393 -580z m1164 -687 c159 -236
299 -450 312 -475 171 -336 41 -746 -292 -920 -201 -106 -430 -107 -638 -3
-105 52 -241 188 -293 293 -97 195 -102 419 -15 602 40 82 620 949 630 940 3
-4 136 -200 296 -437z"/>
<path d="M1263 2675 c-29 -20 -118 -162 -163 -259 -333 -720 7 -1568 746
-1860 50 -20 104 -36 118 -36 91 0 138 109 73 167 -12 11 -56 32 -97 48 -202
76 -367 193 -502 356 -327 396 -354 969 -64 1404 56 84 60 122 17 166 -34 33
-91 40 -128 14z"/>
<path d="M2240 629 c-65 -26 -81 -110 -31 -160 54 -54 140 -32 162 40 15 50
-8 97 -56 117 -39 16 -41 16 -75 3z"/>
<path d="M3208 3065 c-55 -30 -98 -216 -78 -340 21 -130 71 -225 169 -319 66
-62 101 -80 142 -71 41 9 79 59 79 102 0 31 -9 44 -69 102 -38 36 -78 85 -89
107 -40 80 -46 202 -13 287 39 101 -48 182 -141 132z"/>
<path d="M3624 2422 c-60 -48 -57 -128 6 -165 15 -10 38 -17 50 -17 49 0 100
51 100 100 0 77 -99 129 -156 82z"/>
</g>
</svg>
